<svg width="350" height="350" viewBox="0 0 494 381" fill="none" xmlns="http://www.w3.org/2000/svg">
<g clip-path="url(#clip0_33:425)">
<g style="mix-blend-mode:multiply" opacity="0.3" filter="url(#filter0_b_33:425)">
<path d="M253.09 381C386.141 381 494 366.129 494 347.785C494 329.441 386.141 314.571 253.09 314.571C120.039 314.571 12.1802 329.441 12.1802 347.785C12.1802 366.129 120.039 381 253.09 381Z" fill="#A074EE"/>
<path d="M253.09 381C386.141 381 494 366.129 494 347.785C494 329.441 386.141 314.571 253.09 314.571C120.039 314.571 12.1802 329.441 12.1802 347.785C12.1802 366.129 120.039 381 253.09 381Z" fill="black" fill-opacity="0.2"/>
</g>
<g filter="url(#filter1_d_33:425)">
<path d="M428.621 241.544H423.476C430.274 241.761 436.713 244.521 441.408 249.231C446.103 253.94 448.681 260.224 448.587 266.733C448.493 273.241 445.736 279.455 440.907 284.039C436.078 288.623 429.562 291.213 422.76 291.25H416.168C419.687 291.25 423.17 291.934 426.405 293.26C429.64 294.586 432.56 296.527 434.987 298.965C437.415 301.403 439.301 304.287 440.529 307.443C441.757 310.599 442.303 313.96 442.134 317.324C441.477 330.696 429.441 341 415.437 341H287.367C248.918 341 226.576 333.294 215.018 327.3C211.885 325.666 209.27 323.254 207.448 320.318C205.627 317.382 204.666 314.031 204.667 310.617V166.22C204.684 162.749 205.689 159.347 207.573 156.381C209.456 153.414 212.149 150.994 215.361 149.38C234.943 139.39 258.687 106.024 262.207 76.6964C267.188 35.0814 258.239 15.1017 273.527 15.0018C301.431 14.802 317.002 31.9417 322.371 52.4924C330.127 82.1623 323.445 103.869 319.687 116.185C312.468 139.861 340.104 142.044 340.104 142.044H435.273C449.263 142.044 461.314 152.334 461.97 165.72C462.139 169.084 461.593 172.446 460.365 175.602C459.137 178.757 457.251 181.642 454.824 184.079C452.396 186.517 449.476 188.458 446.241 189.784C443.006 191.11 439.523 191.794 436.004 191.794H429.352C432.871 191.794 436.354 192.478 439.589 193.804C442.824 195.13 445.744 197.071 448.172 199.509C450.6 201.947 452.485 204.831 453.713 207.987C454.942 211.142 455.488 214.504 455.318 217.868C454.662 231.254 442.626 241.544 428.621 241.544ZM195.465 159.07V327.028C195.469 330.066 194.216 332.981 191.98 335.136C189.744 337.292 186.707 338.512 183.533 338.531H89.0061C87.4282 338.531 85.8657 338.233 84.4081 337.655C82.9505 337.077 81.6263 336.229 80.5112 335.161C79.3962 334.093 78.5121 332.825 77.9096 331.429C77.3071 330.034 76.998 328.538 77 327.028V159.07C76.998 157.56 77.3071 156.065 77.9096 154.669C78.5121 153.274 79.3962 152.006 80.5112 150.937C81.6263 149.869 82.9505 149.022 84.4081 148.443C85.8657 147.865 87.4282 147.567 89.0061 147.567H183.414C184.996 147.562 186.563 147.855 188.026 148.431C189.489 149.007 190.818 149.853 191.938 150.922C193.058 151.991 193.946 153.261 194.551 154.659C195.156 156.058 195.467 157.557 195.465 159.07ZM123.16 309.932C123.163 307.631 122.453 305.38 121.119 303.466C119.785 301.551 117.888 300.058 115.667 299.176C113.446 298.293 111.001 298.061 108.643 298.508C106.284 298.955 104.116 300.062 102.415 301.688C100.714 303.314 99.5545 305.386 99.0842 307.643C98.614 309.899 98.8539 312.239 99.7734 314.365C100.693 316.491 102.251 318.308 104.25 319.587C106.249 320.866 108.6 321.548 111.005 321.548C114.226 321.548 117.315 320.325 119.595 318.147C121.874 315.969 123.156 313.014 123.16 309.932Z" fill="white"/>
</g>
<path d="M322.374 47.2379C322.075 46.1026 322.509 72.5637 312.555 90.4228C287.956 134.597 315.23 144.844 322.658 149.254C337.513 157.987 344.851 147.275 388.236 144.073C417.049 141.948 431.964 154.713 458.357 150.739C455.904 147.005 452.525 143.932 448.531 141.806C444.537 139.679 440.058 138.567 435.506 138.571H340.143C340.143 138.571 312.451 136.344 319.684 112.197C323.45 99.6216 330.145 77.4979 322.374 47.2379Z" fill="#F1F8FA"/>
<path d="M337.722 314.105C330.982 308.065 316.904 311.863 323.45 306.318C374.546 263.119 319.609 254.007 313.766 249.437C306.787 244.008 313.377 227.997 281.126 226.76C275.597 226.556 251.61 233.193 246.753 253.381C242.375 271.444 250.041 269.639 253.807 279.93C242.375 309.797 260.353 318.399 249.683 338.572C262.129 340.622 274.735 341.611 287.358 341.527H343.984C338.664 338.194 340.816 316.87 337.722 314.105Z" fill="#F1F8FA"/>
<path d="M122.772 310.845C122.592 312.891 121.871 314.856 120.678 316.549C119.485 318.242 117.861 319.604 115.965 320.503C114.07 321.401 111.967 321.805 109.863 321.675C107.759 321.545 105.726 320.885 103.962 319.76C102.198 318.635 100.765 317.083 99.8013 315.257C98.838 313.43 98.378 311.391 98.4663 309.34C98.5546 307.288 99.1881 305.294 100.305 303.553C101.422 301.811 102.984 300.382 104.838 299.404C103.544 297.817 102.621 295.974 102.133 294.004C101.012 289.318 100.295 260.833 98.9645 256.685C96.3043 248.316 96.7826 232.626 103.448 226.993C110.651 220.865 116.779 212.744 117.974 208.974C129.571 172.586 113.491 161.233 95.3777 158.031C93.0165 157.624 97.0815 146.285 97.485 144.175H88.5928C87.0117 144.175 85.4461 144.478 83.9855 145.068C82.5249 145.658 81.198 146.522 80.0806 147.612C78.9633 148.701 78.0775 149.994 77.4737 151.418C76.87 152.841 76.5603 154.366 76.5623 155.906V327.234C76.5603 328.774 76.87 330.299 77.4737 331.722C78.0775 333.145 78.9633 334.439 80.0806 335.528C81.198 336.618 82.5249 337.482 83.9855 338.072C85.4461 338.661 87.0117 338.965 88.5928 338.965H144.531C141.901 336.782 124.341 310.699 122.772 310.845Z" fill="#F1F8FA"/>
<path d="M56.9996 228.55C56.9996 228.55 48.7351 268.78 49.1536 271.939C49.572 275.097 94.1374 337.757 94.1374 337.757C95.436 336.226 96.8231 334.768 98.292 333.39C99.5324 332.415 89.0412 299.783 72.4226 276.757C72.4226 276.757 76.7118 231.432 76.368 228.346C76.0243 225.261 56.9996 228.55 56.9996 228.55Z" fill="url(#paint0_linear_33:425)"/>
<path d="M97.201 226.018C97.201 226.018 100.19 235.042 84.0794 279.653C79.596 301.034 64.965 337.51 60.93 350.231L54.5635 348.935C61.2886 222.306 70.4498 222.423 69.0001 228.128C70.2256 223.325 97.201 226.018 97.201 226.018Z" fill="url(#paint1_linear_33:425)"/>
<g style="mix-blend-mode:multiply" opacity="0.5">
<path d="M67.9839 228.434C67.9839 228.434 59.2562 281.618 58.748 287.76C58.748 287.76 64.5616 231.301 65.3686 228.434H67.9839Z" fill="#42D1FB"/>
</g>
<path d="M26 162.144L32.8148 185.519L43.5153 184.078L38.7778 159L26 162.144Z" fill="black"/>
<path d="M40.6459 159.358L44.412 182.384L43.5153 184.436L38.7778 159.358H40.6459Z" fill="#232323"/>
<path d="M35.5788 168.81C35.5788 169.13 35.4481 169.438 35.2154 169.664C34.9828 169.891 34.6673 170.018 34.3383 170.018C34.0888 170.021 33.8441 169.951 33.6353 169.818C33.4266 169.685 33.2634 169.494 33.1665 169.27C33.0697 169.046 33.0436 168.799 33.0915 168.56C33.1395 168.322 33.2593 168.103 33.4358 167.931C33.6123 167.759 33.8373 167.642 34.0822 167.596C34.3271 167.549 34.5808 167.574 34.8107 167.669C35.0407 167.763 35.2366 167.922 35.3734 168.125C35.5102 168.328 35.5817 168.567 35.5788 168.81Z" fill="#5BD9FE"/>
<path d="M30.6369 181.945C30.6369 181.945 31.8774 181.756 32.1314 183.4C32.3855 185.045 33.8052 186.311 33.7604 185.904C33.2523 181.537 38.2438 176.283 38.9462 175.977C39.6486 175.672 43.2055 175.162 43.4297 175.497C44.6402 176.953 42.9066 182.775 43.7883 184.638C44.6701 186.501 43.4297 187.039 42.0548 190.911C41.7559 191.726 49.3926 201.842 49.3926 201.842L50.5583 196.878L59.6149 199.789L57.9112 211.987C57.9112 211.987 55.2062 217.212 49.4973 213.893C41.5018 209.279 29.3069 184.74 30.6369 181.945Z" fill="#FAEAC2"/>
<g style="mix-blend-mode:multiply">
<path d="M42.1592 190.955C41.3223 191.129 40.6647 192.905 37.3918 192.978C36.525 192.978 45.746 198.669 47.2554 198.669C42.5029 192.512 41.8005 191.027 42.1592 190.955Z" fill="#FBF4DB"/>
</g>
<g style="mix-blend-mode:multiply">
<path d="M49.4973 201.885C49.4973 201.885 54.1302 204.316 55.4752 206.397C56.5308 208.173 57.3685 210.064 57.971 212.03L59.7793 199.586L53.6968 197.795C54.2514 199.494 54.5779 201.255 54.6682 203.035C53.0339 202.339 51.2798 201.949 49.4973 201.885V201.885Z" fill="#FBF4DB"/>
</g>
<path d="M55.0566 141.977C55.0566 141.977 58.8975 157.871 63.7545 160.491C68.6116 163.111 70.4498 161.713 71.5407 162.237C71.9592 162.441 71.8845 164.028 71.3315 166.517C70.5096 170.155 70.0313 175.017 70.0313 175.017C70.0313 175.017 84.4979 170.388 84.9761 167.492C85.4543 164.595 84.9761 149.618 84.9761 149.618C84.9761 149.618 88.7571 141.191 87.1431 137.77C85.5291 134.35 76.6818 127.247 76.6818 127.247C72.3627 127.567 56.9098 126.985 55.0566 141.977Z" fill="#FAEAC2"/>
<path d="M71.7949 163.751C71.6903 167.434 69.7326 173.59 74.3505 171.786C78.9684 169.981 84.7371 165.702 85.2751 159.472C85.2751 159.472 101.998 162.82 105.615 164.144C116.495 168.118 116.868 187.52 115.374 200.328C115.374 200.328 107.154 200.75 101.924 197.344C101.326 204.025 96.5435 223.471 97.1562 226.018C97.769 228.565 57.0594 230.18 56.5961 230.384C56.1328 230.588 57.5077 199.018 57.1939 199.12C56.88 199.222 50.6182 196.98 50.6182 196.98C50.6182 196.98 54.4889 172.819 56.1776 171.174C57.8664 169.53 69.9268 164.188 71.7949 163.751Z" fill="#67EFEF"/>
<path d="M54.5635 348.935C54.5635 348.935 39.8578 350.711 36.9286 352.647C33.9995 354.583 57.8514 357.377 60.8403 355.878C63.8293 354.379 60.9449 350.231 60.9449 350.231L54.5635 348.935Z" fill="black"/>
<path d="M94.1373 337.757C94.1373 337.757 94.8547 347.247 94.1373 348.935C93.42 350.624 87.5765 351.526 88.5031 352.647C89.4297 353.768 97.8436 353.768 98.3966 352.647C98.9495 351.526 105.525 336.491 103.836 335.181C102.142 334.2 100.251 333.585 98.292 333.376L94.1373 337.757Z" fill="black"/>
<g style="mix-blend-mode:multiply">
<path d="M71.5408 162.237C74.8585 161.51 78.5798 160.069 80.5973 153.883C80.5973 161.452 77.175 167.143 71.3315 168.118C71.212 166.4 72.2432 162.645 71.5408 162.237Z" fill="#FBF4DB"/>
</g>
<g style="mix-blend-mode:multiply" opacity="0.5">
<path d="M96.3341 179.529C96.3341 179.529 103.403 206.194 89.4744 208.537C81.8526 209.818 87.4569 215.029 92.0897 212.656C96.7226 210.284 81.1352 226.614 83.2873 227.662C85.4393 228.71 97.171 225.275 97.171 225.275L102.043 197.344L96.3341 179.529Z" fill="#E3DCF0"/>
</g>
<path d="M102.805 197.795C105.406 199.702 115.374 200.328 115.374 200.328C115.374 200.328 115.284 206.834 113.132 209.716C110.98 212.598 91.1484 235.056 91.1484 235.056C91.1484 235.056 86.5155 236.512 84.767 232.902C84.5876 232.524 99.7865 210.196 101.714 207.62C103.642 205.044 102.925 200.619 102.805 197.795Z" fill="#FAEAC2"/>
<g style="mix-blend-mode:multiply" opacity="0.5">
<path d="M86.7545 229.642L84.7669 232.902C84.7669 232.902 86.2613 236.526 91.1483 235.056C91.1483 235.056 91.1483 236.759 85.8429 237.545C83.093 237.953 77.8474 231.127 77.8474 231.127C80.8598 230.922 83.8437 230.425 86.7545 229.642V229.642Z" fill="#42D1FB"/>
</g>
<path d="M59.6446 144.539C60.2061 144.838 60.8289 145.012 61.4679 145.048C62.0956 145.048 62.6485 144.16 62.2151 143.709C62.6934 144.451 63.9637 144.116 64.3672 143.316C64.7707 142.515 63.8441 141.482 64.3672 140.696C64.5211 140.584 64.6969 140.504 64.8837 140.461C65.0706 140.418 65.2645 140.412 65.4536 140.445C65.6427 140.478 65.8229 140.548 65.983 140.651C66.1432 140.755 66.2799 140.889 66.3847 141.045C66.3479 140.817 66.3765 140.584 66.4673 140.371C66.5581 140.158 66.7076 139.973 66.8994 139.838C67.0911 139.702 67.3176 139.621 67.5538 139.603C67.79 139.585 68.0268 139.631 68.2379 139.735C68.5966 140.071 68.877 140.478 69.0598 140.929C69.299 141.351 69.6875 141.773 70.1658 141.759C70.644 141.744 70.3302 141.191 70.5394 140.754C71.0475 139.939 71.3614 139.939 71.8844 140.376V141.438C71.9864 141.151 72.2007 140.915 72.4807 140.782C72.7607 140.648 73.0836 140.628 73.3789 140.725C73.6621 140.881 73.8718 141.139 73.9638 141.443C74.0559 141.747 74.0229 142.074 73.8721 142.355C73.9298 142.541 74.0251 142.714 74.1524 142.863C74.2797 143.012 74.4364 143.136 74.6133 143.225C74.7901 143.315 74.9836 143.369 75.1822 143.384C75.3809 143.4 75.5808 143.377 75.7701 143.316C76.1399 143.15 76.4292 142.851 76.577 142.482C76.7248 142.113 76.7195 141.702 76.5621 141.336C76.8816 141.459 77.1714 141.645 77.4133 141.882C77.6553 142.119 77.844 142.403 77.9676 142.715C78.0912 143.026 78.147 143.36 78.1315 143.694C78.1159 144.028 78.0294 144.355 77.8773 144.655C78.2513 144.916 78.5375 145.28 78.6997 145.699C78.8619 146.119 78.893 146.576 78.7889 147.013C78.1762 147.129 78.9234 147.231 79.1625 147.813L81.464 146.503C81.5988 146.823 81.6644 147.167 81.6569 147.513C81.6493 147.858 81.5687 148.199 81.4201 148.513C81.2715 148.827 81.058 149.108 80.793 149.338C80.528 149.568 80.2172 149.743 79.8799 149.851L80.388 150.754C79.9457 151.056 79.6442 151.516 79.549 152.034C79.4538 152.552 79.5727 153.086 79.8799 153.519C80.0446 153.718 80.2501 153.88 80.4831 153.997C80.7162 154.114 80.9718 154.182 81.2334 154.197C81.4951 154.212 81.7571 154.174 82.0027 154.085C82.2483 153.996 82.472 153.857 82.6596 153.679C83.2425 154.407 84.1541 155.207 84.9761 154.771C85.798 154.334 85.6934 153.548 85.9026 152.849C86.1118 152.151 86.9039 151.394 87.3971 151.889C87.3971 151.365 87.3971 150.841 87.3971 150.302C87.7788 150.302 88.1531 150.199 88.4782 150.004C88.8033 149.809 89.0665 149.53 89.2385 149.199C89.4104 148.867 89.4844 148.495 89.4522 148.124C89.42 147.754 89.2828 147.399 89.056 147.1C89.7994 147.02 90.5313 146.859 91.2379 146.62C92.1042 146.341 92.8302 145.753 93.2704 144.975C93.4883 144.577 93.575 144.123 93.5189 143.675C93.4627 143.227 93.2664 142.807 92.9566 142.472C93.659 142.05 93.644 141.831 94.451 141.802C95.7064 139.561 93.7187 140.085 94.2119 139.182C94.7051 138.28 95.811 138.513 96.1697 137.727C96.5284 136.941 96.2743 135.238 95.557 134.816C96.7376 134.903 97.0514 133.171 96.4387 132.167C95.4225 130.595 93.7935 131.497 93.8084 131.075C93.8084 129.911 94.0475 128.586 92.3139 128.164C93.2256 127.218 93.3451 126.214 92.4783 124.627C91.6115 123.041 90.3711 122.429 88.787 123.303C88.8058 122.758 88.7061 122.216 88.4943 121.712C88.2826 121.208 87.9636 120.753 87.5584 120.378C87.1532 120.003 86.671 119.715 86.1435 119.534C85.6159 119.354 85.0551 119.284 84.4978 119.329C84.6507 118.753 84.6034 118.144 84.3633 117.597C84.0644 117.088 83.1976 116.942 82.8688 117.452C82.6727 116.962 82.3265 116.543 81.8774 116.251C81.4282 115.959 80.8978 115.809 80.3581 115.821C79.297 115.821 79.0878 114.497 78.8636 115.53C79.2373 115.239 78.8636 114.584 78.3705 114.526C77.8773 114.468 76.4575 115.268 75.9793 115.312C75.2171 115.312 75.4861 114.322 74.7389 114.191C73.9916 114.06 71.451 114.002 71.6303 114.759C69.6128 113.056 69.6726 113.449 68.746 114.06C68.6327 113.823 68.4654 113.613 68.2568 113.447C68.0483 113.282 67.8039 113.165 67.542 113.104C67.2802 113.044 67.0077 113.042 66.7451 113.1C66.4825 113.157 66.2366 113.271 66.0261 113.434C65.3535 114.031 65.219 115.035 64.7259 115.778C64.2327 116.52 62.8428 116.797 62.6186 115.923L61.2138 117.961C61.0943 116.971 59.5699 116.767 58.8824 117.481C58.5782 117.881 58.3693 118.342 58.2711 118.83C58.1729 119.319 58.1877 119.822 58.3145 120.304C57.4551 119.796 56.4403 119.595 55.4451 119.737C54.4887 119.999 53.7713 121.28 54.4289 122.036C53.7353 121.947 53.0299 122.051 52.3948 122.337C51.7598 122.623 51.2213 123.079 50.8421 123.652C50.6364 123.435 50.3884 123.26 50.1125 123.137C49.8366 123.014 49.5383 122.946 49.2351 122.936C48.9319 122.927 48.6297 122.976 48.3463 123.082C48.0629 123.187 47.8038 123.346 47.5842 123.55C47.1496 123.99 46.8147 124.514 46.601 125.089C46.3873 125.663 46.2997 126.274 46.3438 126.883C46.3117 127.295 46.3742 127.708 46.5268 128.094C46.6793 128.479 46.918 128.826 47.2255 129.11C46.3737 128.557 45.4919 129.838 45.4022 130.842C45.3126 131.847 45.1034 133.2 44.1021 133.317C44.3561 134.088 46.3139 135.383 46.8818 135.98L45.3873 138.12C45.1789 138.389 45.0267 138.696 44.939 139.022C44.7447 140.041 45.8655 140.871 46.8818 140.943C46.1389 141.228 45.5361 141.779 45.197 142.482C44.8579 143.186 44.8084 143.99 45.0585 144.728C45.5517 146.183 48.705 146.882 50.1995 146.183C49.6615 148.337 51.978 149.182 52.4263 149.342C53.5621 149.735 55.4153 148.265 55.6544 146.664C57.6719 147.944 59.271 147.493 59.6446 144.539Z" fill="#3D3C3C"/>
<path d="M276.897 333.929C276.897 333.929 271.861 350.231 281.156 353.913C290.452 357.595 319.236 346.315 323.704 346.985C328.173 347.654 367.044 369.996 367.044 369.996V364.989C367.044 364.989 333.403 336.374 328.531 334.54C324.048 332.866 301.631 323.77 295.757 326.113C289.884 328.456 276.897 333.929 276.897 333.929Z" fill="#5018B4"/>
<g style="mix-blend-mode:multiply" opacity="0.4">
<path d="M364.731 362.804C360.86 364.26 357.258 361.669 354.553 358.875C354.254 358.58 354.022 358.227 353.874 357.839C353.726 357.45 353.665 357.035 353.695 356.622C353.724 356.209 353.844 355.806 354.046 355.442C354.249 355.077 354.528 354.759 354.867 354.508L351.086 351.379C350.12 352.368 349.043 353.247 347.873 353.999C347.176 354.387 346.35 354.494 345.572 354.295C344.795 354.097 344.129 353.608 343.718 352.936C343.718 352.849 343.718 352.761 343.599 352.689C343.205 352.344 342.907 351.909 342.732 351.422C341.402 347.827 339.519 344.465 338.084 340.914C334.941 338.257 331.56 335.88 327.981 333.811C323.498 332.137 301.081 323.04 295.208 325.383C289.334 327.727 276.362 333.199 276.362 333.199C276.362 333.199 271.326 349.501 280.621 353.184C289.917 356.866 318.701 345.586 323.169 346.255C327.638 346.925 366.509 369.267 366.509 369.267V364.26L364.731 362.804Z" fill="#34018E"/>
</g>
<path d="M299.748 231.199C311.464 238.695 301.242 253.512 319.684 256.045C346.002 259.669 352.563 281.385 323.794 292.956C296.385 303.946 266.899 282.317 263.462 267.572C260.024 252.828 270.037 212.176 299.748 231.199Z" fill="url(#paint2_linear_33:425)"/>
<g style="mix-blend-mode:multiply" opacity="0.5">
<path d="M322.837 286.756C337.991 263.744 285.998 273.933 291.11 234.998C268.349 235.231 260.577 255.201 263.462 267.572C266.899 282.317 316.411 296.479 322.837 286.756Z" fill="#7144A6"/>
</g>
<path d="M300.241 249.684C296.206 256.962 291.02 262.202 288.823 262.944C287.02 263.555 285.092 263.73 283.204 263.453L285.714 269.639C285.714 269.639 296.49 272.201 296.833 273.875C297.177 275.549 278.601 290.147 275.672 290.977C272.742 291.807 271.353 276.422 270.321 269.479L273.848 269.377C274.237 265.313 273.954 261.215 273.011 257.238C264.388 251.416 278.675 232.073 282.621 230.399C286.566 228.725 307.325 236.934 300.241 249.684Z" fill="#FAEAC2"/>
<path d="M275.672 246.176C265.913 262.274 275.672 273.831 273.58 281.982C270.292 280.716 272.474 283.612 264.284 276.073C246.485 259.669 253.27 239.83 270.262 228.215C279.229 222.059 295.399 224.606 300.6 232.422C304.5 238.244 302.423 247.239 300.241 251.242C294.457 253.643 288.808 253.381 285.177 246.176C279.722 235.275 277.181 243.673 275.672 246.176Z" fill="url(#paint3_linear_33:425)"/>
<path d="M374.277 361.234C370.855 362.326 362.516 365.15 363.457 368.235C364.399 371.321 369.57 371.379 370.84 370.797C374.651 369.094 380.958 362.879 381.003 360.856C381.047 358.833 377.461 360.215 374.277 361.234Z" fill="#3D3C3E"/>
<g style="mix-blend-mode:multiply" opacity="0.5">
<path d="M370.84 370.797C374.651 369.094 380.958 362.879 381.002 360.856C381.019 360.744 381.013 360.63 380.985 360.52C380.957 360.411 380.906 360.308 380.837 360.217C380.767 360.126 380.68 360.05 380.58 359.992C380.481 359.935 380.37 359.897 380.255 359.881C378.721 360.365 377.222 360.954 375.772 361.642C372.394 363.097 364.19 366.765 365.31 370.186C365.302 370.224 365.302 370.264 365.31 370.302C367.03 371.117 368.996 371.293 370.84 370.797V370.797Z" fill="black"/>
</g>
<g style="mix-blend-mode:multiply">
<path d="M283.204 263.453C283.204 263.453 277.39 261.474 276.539 259.669L285.715 269.639L283.204 263.453Z" fill="#FBF4DB"/>
</g>
<path d="M266.316 336.651C266.316 336.651 265.524 355.383 275.507 356.446C295.832 358.585 311.255 333.07 315.739 333.74C320.222 334.409 346.271 369.996 346.271 369.996L347.915 364.524C347.915 364.524 322.314 318.02 316.74 316.565C312.256 315.415 283.727 327.918 277.883 330.261C273.814 332.001 269.938 334.142 266.316 336.651Z" fill="#5018B4"/>
<path d="M352.069 356.082C348.901 358.411 341.294 364.262 343.102 367.493C344.911 370.724 347.915 370.753 349.2 369.938C356.104 365.572 359.273 355.849 358.72 353.535C358.167 351.22 354.998 353.928 352.069 356.082Z" fill="#3D3C3E"/>
<g style="mix-blend-mode:multiply" opacity="0.5">
<path d="M358.78 353.549C358.754 353.433 358.714 353.321 358.66 353.214C357.285 353.52 355.148 355.354 353.131 356.941C350.022 359.4 342.669 365.426 344.164 368.759C344.75 369.507 345.583 370.035 346.523 370.252C347.463 370.47 348.451 370.364 349.32 369.953C356.104 365.572 359.333 355.863 358.78 353.549Z" fill="black"/>
</g>
<path d="M271.069 269.377C271.069 269.377 275.014 284.689 285.416 282.957C291.229 281.982 289.75 275.127 287.239 270.032C287.239 270.032 295.757 271.269 298.836 275.054C301.915 278.838 306.787 299.041 306.787 299.041C306.787 299.041 304.844 309.229 302.049 309.855C300.988 310.102 297.715 298.56 297.431 300.001C296.833 302.912 290.362 308.327 296.43 323.289C297.476 325.865 279.991 323.58 266.376 344.074C260.308 353.142 269.574 310.306 267.87 309.375C266.092 310.83 257.618 308.458 257.618 308.458C257.618 308.458 250.923 274.384 271.069 269.377Z" fill="#6CE5E7"/>
<g style="mix-blend-mode:multiply" opacity="0.3">
<path d="M283.802 322.358C283.408 321.927 283.141 321.401 283.028 320.835C282.915 320.269 282.96 319.684 283.159 319.141C278.451 316.23 273.385 314.352 271.741 308.589C270.665 304.833 269.634 301.064 268.573 297.323L268.394 297.061C268.199 296.741 268.05 296.45 267.915 296.188C268.02 297.643 268.11 299.099 268.125 300.685C268.125 303.247 268.663 307.191 267.512 309.607V309.68C267.693 309.626 267.86 309.537 268.005 309.418C268.872 309.913 266.765 321.819 265.405 331.804C265.697 332.14 265.916 332.532 266.047 332.954C266.569 334.761 266.796 336.638 266.72 338.514C266.72 338.718 266.72 339.591 266.585 340.61C267.168 339.154 267.601 337.539 267.975 336.724C268.892 334.529 270.325 332.574 272.16 331.018C275.746 328.107 280.155 327.554 284.609 328.107C286.291 327.329 288.023 326.658 289.794 326.098C287.472 325.433 285.392 324.135 283.802 322.358V322.358Z" fill="#E49FF1"/>
</g>
<g style="mix-blend-mode:multiply" opacity="0.3">
<path d="M300.345 298.502C299.852 301.02 298.492 298.706 297.611 296.188C296.549 293.16 295.085 290.802 293.904 287.833C294.741 290.569 297.431 297.629 296.101 299.565C293.874 302.825 290.512 304.819 288.733 303.713C289.242 304.353 289.316 306.1 289.75 314.105C289.75 315.269 294.756 323.508 294.039 324.817C295.802 324.323 296.744 323.988 296.475 323.362C290.407 308.356 296.878 302.985 297.476 300.074C297.76 298.618 301.033 310.175 302.094 309.928C304.889 309.273 306.832 299.113 306.832 299.113C306.832 299.113 305.053 292.389 303.843 287.906C302.192 291.268 301.015 294.833 300.345 298.502V298.502Z" fill="#E49FF1"/>
</g>
<path d="M305.621 254.691L317.114 260.586L308.416 279.93L299.748 277.834L305.621 254.691Z" fill="white"/>
<path d="M305.621 254.691L303.992 254.706L298.567 276.087L299.748 277.834L305.621 254.691Z" fill="#DADADA"/>
<path d="M311.001 263.264C310.762 264.239 309.955 264.88 309.223 264.72C308.832 264.547 308.523 264.236 308.359 263.849C308.195 263.462 308.189 263.029 308.341 262.638C308.58 261.678 309.372 261.037 310.119 261.183C310.513 261.353 310.824 261.664 310.988 262.051C311.153 262.439 311.157 262.873 311.001 263.264Z" fill="#7144A6"/>
<path d="M311.465 270.382C311.465 270.382 315.634 263.293 314.603 268.067C313.572 272.841 317.353 277.907 314.887 285.417C312.63 292.287 307.205 312.649 305.726 313.741C303.11 315.677 300.136 309.607 300.764 305.314C302.423 293.961 310.09 281.938 308.431 279.93C306.772 277.921 303.006 277.121 301.706 275.316C300.405 273.511 299.21 269.712 298.014 267.951C296.819 266.19 307.504 272.201 307.504 272.201L311.465 270.382Z" fill="#FAEAC2"/>
<path d="M257.708 308.501C257.708 308.501 260.876 321.397 261.653 321.906C262.431 322.416 289.929 328.427 291.842 326.972C296.011 323.901 302.094 323.013 306.443 321.936C310.792 320.859 300.629 316.317 297.327 317.234C295.237 318.138 293.341 319.417 291.737 321.004L270.381 316.259L268.139 308.443C264.689 309.017 261.165 309.037 257.708 308.501V308.501Z" fill="#FAEAC2"/>
<path d="M274.446 246.176C272.092 250.162 270.854 254.679 270.854 259.276C270.854 263.873 272.092 268.39 274.446 272.376C278.227 278.722 263.746 279.42 258.635 269.581C246.679 246.599 269.619 248.04 274.446 246.176Z" fill="url(#paint4_linear_33:425)"/>
<path d="M362.68 116.476C362.68 116.476 395.664 111.935 400.625 115.981C405.363 119.824 445.131 137.814 445.131 137.814C445.131 137.814 443.532 141.889 440.946 142.035L395.514 132.225C395.514 132.225 344.104 151.35 338.724 135.136C331.849 114.337 362.68 116.476 362.68 116.476Z" fill="#3EE4E7"/>
<g style="mix-blend-mode:multiply" opacity="0.5">
<path d="M358.956 115.173C358.956 115.173 391.939 110.632 396.901 114.678C401.639 118.521 441.407 136.511 441.407 136.511C441.407 136.511 439.808 140.586 437.222 140.732L391.79 130.922C391.79 130.922 340.38 150.047 335 133.833C328.125 113.034 358.956 115.173 358.956 115.173Z" fill="#6CE5E7"/>
</g>
<path d="M440.513 136.213L439.84 141.744C441.516 142.032 443.231 142.032 444.906 141.744C447.567 141.235 457.535 129.692 457.221 126.054C456.907 122.415 453.246 128.848 440.513 136.213Z" fill="black"/>
<path d="M352.189 113.015C352.189 113.015 385.456 100.687 390.657 104.864C395.589 108.837 439.765 136.652 439.765 136.652C439.765 136.652 437.942 140.684 435.162 140.757L387.489 119.477C387.489 119.477 373.082 133.057 357.449 139.418C343.924 144.919 329.548 141.222 326.065 130.976C318.892 110.206 352.189 113.015 352.189 113.015Z" fill="#3EE4E7"/>
<path d="M345.434 69.7982C345.434 69.7982 366.924 85.3576 373.291 86.522C375.473 86.9296 394.333 80.3943 394.333 80.3943L394.976 85.736L370.9 95.9246C370.9 95.9246 351.128 88.4724 345.359 85.736C344.567 85.3576 344.507 72.4764 345.434 69.7982Z" fill="url(#paint5_linear_33:425)"/>
<g style="mix-blend-mode:multiply" opacity="0.4">
<path d="M381.137 87.8611C373.261 89.1128 368.359 91.8637 364.354 90.0007C361.589 88.7198 358.899 86.522 354.804 76.2752C349.603 72.7966 345.434 69.7982 345.434 69.7982C344.507 72.4764 344.567 85.3576 345.359 85.736C351.128 88.5015 370.9 95.9246 370.9 95.9246L394.976 85.736L394.737 83.7857C390.418 85.7473 385.841 87.1187 381.137 87.8611Z" fill="#5BD9FE"/>
</g>
<path d="M360.02 39.6401C361.843 43.8029 362.546 56.5386 361.679 56.9752C360.812 57.4119 359.064 56.6841 358.331 57.8194C357.599 58.9547 354.625 66.0285 350.56 64.8932C348.326 64.3056 346.163 63.4909 344.104 62.4625C344.104 62.4625 344.448 64.3837 344.926 67.7459C349.155 71.2392 350.5 79.39 350.5 79.39L335.032 85.7651L331.804 66.2031C332.052 61.772 332.052 57.331 331.804 52.8998C330.848 46.219 332.91 35.5938 339.516 31.4893C346.899 26.8608 356.418 31.5039 360.02 39.6401Z" fill="#FAEAC3"/>
<path d="M354.042 27.3848C356.777 29.1314 363.323 22.6544 366.387 30.9653C367.153 33.2897 367.096 35.7975 366.223 38.0861C365.35 40.3747 363.713 42.3112 361.574 43.5846C354.565 47.1797 351.412 34.6623 344.672 37.9809C342.953 38.8251 343.775 42.915 342.759 45.2584C341.743 47.6018 338.933 50.1052 338.5 48.4896C338.066 46.874 335.511 42.8131 333.702 47.0341C332.387 49.9451 334.733 51.7208 334.091 56.0583C333.777 58.2852 332.043 60.1046 332.014 59.4932C331.58 52.1284 328.292 52.3176 326.723 45.7533C324.84 37.8353 325.587 29.9028 334.898 29.1168C338.171 21.752 346.435 22.5379 354.042 27.3848Z" fill="black"/>
<path d="M345.957 68.7649C355.357 78.8661 356.03 86.2309 354.595 92.9263C352.563 102.46 363.024 109.315 360.708 110.887C359.362 111.804 347.257 115.108 338.843 120.29C330.429 125.471 329.981 129.459 325.916 129.94C324.511 130.1 324.182 115.996 323.241 105.851C321.014 82.1264 325.483 75.5184 331.924 61.9677C334.106 69.4198 347.795 75.2419 345.957 68.7649Z" fill="url(#paint6_linear_33:425)"/>
<g style="mix-blend-mode:multiply" opacity="0.4">
<path d="M329 77C329.259 79.5557 329.977 82.0083 331.103 84.179C332.228 86.3498 333.732 88.1843 335.506 89.5488C340.468 93.4381 345.6 96.9862 350.88 100.177C352.975 101.314 355.018 102.59 357 104C355.372 101.033 354.353 97.6251 354.029 94.0671C353.817 94.0323 353.608 93.971 353.405 93.8841C348.843 91.6595 344.381 89.1377 340.037 86.3293C336.412 84.1707 332.09 82.561 329.639 78.372C329.403 77.9313 329.19 77.4731 329 77Z" fill="#5BD9FE"/>
</g>
<g style="mix-blend-mode:multiply" opacity="0.4">
<path d="M341.593 116.404C345.314 115.254 349.514 112.823 349.887 111.076C350.142 109.912 340.696 115.792 339.635 115.196C335.466 112.765 334.704 116.127 330.668 118.66C329.338 119.504 329.607 114.293 328.397 115.356C326.17 117.452 326.305 112.343 329.189 110.378C334.599 106.695 326.2 107.569 326.021 106.841C326.021 107.03 330.145 101.354 329.772 101.019C326.281 97.9283 323.858 93.8606 322.837 89.3748C322.504 94.8726 322.629 100.388 323.211 105.866C324.153 116.054 324.481 130.114 325.886 129.954C329.353 129.547 330.16 126.563 335.6 122.473C335.72 122.211 333.104 119.154 341.593 116.404Z" fill="#5BD9FE"/>
</g>
<path d="M394.333 80.3943L394.976 85.736C394.976 85.736 397.457 85.3139 398.294 85.1393C399.131 84.9646 400.834 77.1631 400.834 77.1631C400.834 77.1631 400.207 75.3583 398.966 75.6348C397.726 75.9114 394.333 80.3943 394.333 80.3943Z" fill="#FAEAC2"/>
<path d="M408.217 70.7152L401.402 70.1767L395.275 90.4519L399.863 93.4793L408.217 70.7152Z" fill="#90EBED"/>
<path d="M408.217 70.7152L409.861 72.3308L401.656 93.7122L399.863 93.4793L408.217 70.7152Z" fill="#72E3E4"/>
<path d="M409.248 78.7059C409.248 78.7059 405.676 76.1879 402.837 76.7992C399.997 77.4105 401.447 80.3652 401.447 80.3652C401.11 81.9152 400.949 83.4968 400.969 85.0811C401.208 86.1727 404.765 87.9921 405.303 87.8465C405.841 87.701 410.25 81.5587 409.248 78.7059Z" fill="#FAEAC2"/>
<path d="M437.628 136.14L433.608 141.002C435.022 142.242 436.652 143.228 438.42 143.913C441.26 144.99 457.849 139.808 459.747 136.155C461.645 132.501 454.247 136.548 437.628 136.14Z" fill="black"/>
<g style="mix-blend-mode:multiply">
<path d="M344.149 62.4625C344.149 62.4625 339.187 59.9881 338.395 56.6405C337.98 55.4446 337.768 54.1911 337.767 52.9289C337.418 55.1535 337.52 57.4231 338.066 59.6097C338.425 61.0652 344.717 66.1304 344.717 66.1304L344.149 62.4625Z" fill="#FBF4DB"/>
</g>
<path d="M334.121 87.8611C334.121 87.8611 363.771 103.668 367.896 102.314C373.216 100.568 388.236 93.4793 388.236 93.4793L385.172 90.3063L367.403 92.9262L341.16 74.8343C341.16 74.8343 327.172 84.5425 334.121 87.8611Z" fill="url(#paint7_linear_33:425)"/>
<path d="M385.172 90.3063C385.172 90.3063 387.16 88.5161 387.728 88.094C388.296 87.6719 390.104 88.1958 390.104 88.1958C390.104 88.1958 392.839 86.2164 394.886 86.5657C396.798 86.8917 398.561 87.7807 399.938 89.1128C400.461 89.8115 398.607 90.5683 397.935 90.5683C396.44 90.3791 395.11 92.1985 393.452 92.9408C391.72 93.219 389.974 93.4037 388.221 93.4939L385.172 90.3063Z" fill="#FAEAC2"/>
<g filter="url(#filter2_d_33:425)">
<path d="M416.915 38.7814C416.92 36.0306 416.138 33.333 414.654 30.9922C413.17 28.6514 411.045 26.7605 408.518 25.5324C405.991 24.3043 403.162 23.7878 400.349 24.0411C397.537 24.2944 394.853 25.3074 392.6 26.966C390.346 28.6246 388.613 30.863 387.596 33.429C386.578 35.9951 386.316 38.7868 386.84 41.4899C387.363 44.193 388.651 46.7001 390.559 48.7288C392.466 50.7575 394.917 52.2273 397.636 52.9726L400.416 58.3871C400.54 58.6293 400.731 58.833 400.967 58.9755C401.203 59.1179 401.475 59.1933 401.753 59.1933C402.031 59.1933 402.304 59.1179 402.54 58.9755C402.776 58.833 402.967 58.6293 403.091 58.3871L405.871 52.9726C409.048 52.1031 411.847 50.246 413.841 47.6841C415.835 45.1223 416.914 41.996 416.915 38.7814V38.7814Z" fill="black"/>
</g>
<path d="M410.13 41.1539H409.906C410.247 41.1539 410.574 41.2858 410.815 41.5205C411.056 41.7553 411.191 42.0737 411.191 42.4057C411.191 42.7376 411.056 43.056 410.815 43.2908C410.574 43.5255 410.247 43.6574 409.906 43.6574H409.592C409.765 43.6571 409.937 43.6913 410.096 43.758C410.255 43.8247 410.399 43.9224 410.518 44.0451C410.637 44.1678 410.729 44.3129 410.788 44.4715C410.847 44.6301 410.873 44.7989 410.862 44.9673C410.84 45.2917 410.691 45.5955 410.447 45.8171C410.203 46.0387 409.881 46.1616 409.547 46.1609H403.211C401.981 46.2172 400.755 45.9824 399.639 45.4768C399.485 45.3921 399.357 45.2695 399.268 45.1212C399.179 44.973 399.132 44.8044 399.131 44.6326V37.355C399.129 37.179 399.176 37.0057 399.269 36.8543C399.361 36.7028 399.494 36.579 399.654 36.4963C400.275 36.0733 400.801 35.5311 401.2 34.9028C401.598 34.2746 401.86 33.5736 401.97 32.843C402.209 30.747 401.776 29.7427 402.523 29.7427C403.091 29.7194 403.649 29.8965 404.094 30.2414C404.538 30.5863 404.84 31.076 404.944 31.6204C405.222 32.6825 405.175 33.8004 404.81 34.837C404.451 36.016 405.826 36.1324 405.826 36.1324H410.534C410.867 36.1317 411.189 36.2546 411.433 36.4762C411.677 36.6978 411.826 37.0016 411.849 37.3259C411.857 37.4951 411.83 37.6642 411.769 37.8228C411.708 37.9815 411.614 38.1265 411.494 38.2489C411.374 38.3714 411.23 38.4688 411.07 38.5354C410.91 38.6019 410.737 38.6361 410.563 38.6359H410.235C410.409 38.6357 410.581 38.6699 410.741 38.7364C410.901 38.8029 411.045 38.9004 411.165 39.0229C411.285 39.1453 411.379 39.2903 411.44 39.4489C411.501 39.6076 411.528 39.7766 411.52 39.9458C411.51 40.1141 411.467 40.2789 411.392 40.4308C411.317 40.5827 411.212 40.7186 411.082 40.8309C410.953 40.9431 410.803 41.0294 410.639 41.0848C410.476 41.1403 410.303 41.1638 410.13 41.1539ZM398.593 37.0057V45.4622C398.595 45.5373 398.581 45.612 398.552 45.6818C398.524 45.7516 398.481 45.8149 398.427 45.8681C398.372 45.9212 398.307 45.9629 398.235 45.9907C398.164 46.0186 398.087 46.0319 398.01 46.0299H393.332C393.255 46.0319 393.178 46.0186 393.107 45.9907C393.035 45.9629 392.97 45.9212 392.915 45.8681C392.861 45.8149 392.818 45.7516 392.789 45.6818C392.761 45.612 392.747 45.5373 392.749 45.4622V37.0057C392.747 36.93 392.761 36.8546 392.789 36.784C392.818 36.7135 392.86 36.6492 392.915 36.5949C392.969 36.5406 393.034 36.4975 393.106 36.4681C393.177 36.4386 393.254 36.4235 393.332 36.4235H397.95C398.033 36.4152 398.116 36.4242 398.195 36.4499C398.274 36.4756 398.346 36.5174 398.407 36.5725C398.468 36.6277 398.516 36.6949 398.548 36.7696C398.58 36.8443 398.595 36.9248 398.593 37.0057V37.0057ZM394.961 44.6035C394.958 44.489 394.921 44.3779 394.853 44.2841C394.786 44.1903 394.691 44.1179 394.582 44.0761C394.472 44.0342 394.353 44.0248 394.238 44.0488C394.123 44.0729 394.018 44.1295 393.936 44.2114C393.853 44.2934 393.798 44.3972 393.776 44.5097C393.754 44.6222 393.767 44.7385 393.813 44.8441C393.858 44.9496 393.935 45.0397 394.033 45.103C394.131 45.1664 394.246 45.2002 394.363 45.2002C394.443 45.2003 394.522 45.1847 394.596 45.1546C394.669 45.1244 394.736 45.0802 394.791 45.0246C394.847 44.969 394.891 44.9031 394.92 44.8307C394.949 44.7584 394.963 44.6811 394.961 44.6035V44.6035Z" fill="white"/>
<g filter="url(#filter3_d_33:425)">
<path d="M347.556 231.403C348.32 228.756 348.309 225.953 347.524 223.311C346.739 220.669 345.212 218.293 343.115 216.451C341.018 214.61 338.435 213.375 335.656 212.887C332.877 212.399 330.013 212.677 327.387 213.69C324.762 214.702 322.479 216.409 320.797 218.618C319.114 220.827 318.099 223.449 317.865 226.19C317.631 228.931 318.188 231.68 319.473 234.129C320.759 236.578 322.721 238.628 325.139 240.049L326.334 245.988C326.384 246.256 326.51 246.506 326.698 246.708C326.886 246.91 327.129 247.057 327.398 247.131C327.668 247.206 327.953 247.205 328.222 247.129C328.492 247.053 328.733 246.904 328.92 246.701L333.075 242.203C336.366 242.183 339.561 241.118 342.175 239.169C344.789 237.22 346.678 234.493 347.556 231.403V231.403Z" fill="#34018E"/>
</g>
<path d="M340.383 231.883L340.144 231.811C340.305 231.857 340.456 231.935 340.587 232.039C340.719 232.142 340.828 232.27 340.908 232.415C340.989 232.559 341.039 232.718 341.057 232.881C341.074 233.045 341.058 233.21 341.01 233.368C340.962 233.526 340.883 233.673 340.776 233.8C340.67 233.928 340.539 234.034 340.39 234.113C340.242 234.191 340.079 234.24 339.911 234.257C339.743 234.274 339.573 234.259 339.411 234.212H339.097C339.264 234.257 339.42 234.334 339.555 234.439C339.69 234.544 339.802 234.675 339.885 234.823C339.967 234.971 340.018 235.134 340.034 235.301C340.05 235.469 340.032 235.638 339.979 235.799C339.867 236.106 339.64 236.36 339.343 236.511C339.047 236.662 338.703 236.699 338.38 236.614L337.125 236.264L335.929 235.944L332.268 234.955C331.065 234.685 329.947 234.136 329.01 233.353C328.883 233.236 328.792 233.087 328.747 232.923C328.702 232.758 328.705 232.585 328.756 232.422L330.758 225.406C330.806 225.24 330.9 225.09 331.029 224.972C331.158 224.854 331.317 224.773 331.49 224.737C332.206 224.492 332.863 224.108 333.42 223.607C333.978 223.107 334.425 222.5 334.734 221.826C335.555 219.876 335.406 218.798 336.123 218.988C336.676 219.115 337.164 219.432 337.496 219.882C337.828 220.331 337.983 220.882 337.932 221.433C337.906 222.524 337.558 223.585 336.93 224.489C336.258 225.537 337.543 225.945 337.543 225.945L339.635 226.513L339.889 226.585L342.071 227.168C342.388 227.25 342.66 227.446 342.835 227.716C343.009 227.986 343.073 228.31 343.013 228.623C342.975 228.789 342.902 228.945 342.8 229.083C342.698 229.22 342.568 229.336 342.419 229.423C342.269 229.51 342.103 229.567 341.93 229.589C341.757 229.612 341.582 229.6 341.414 229.555L341.16 229.453C341.328 229.493 341.487 229.566 341.625 229.667C341.764 229.769 341.88 229.896 341.967 230.042C342.054 230.189 342.109 230.351 342.13 230.518C342.151 230.686 342.137 230.856 342.088 231.018C342.04 231.18 341.958 231.331 341.848 231.462C341.738 231.593 341.602 231.7 341.449 231.778C341.295 231.857 341.126 231.904 340.953 231.917C340.781 231.93 340.607 231.908 340.442 231.854L340.383 231.883ZM330.414 224.868L328.098 233.019C328.053 233.165 327.952 233.289 327.815 233.365C327.679 233.441 327.518 233.463 327.366 233.426L322.882 232.204C322.73 232.163 322.6 232.065 322.522 231.931C322.443 231.797 322.423 231.639 322.464 231.49L324.795 223.34C324.84 223.194 324.942 223.071 325.079 222.998C325.216 222.924 325.377 222.906 325.528 222.947L330.011 224.169C330.086 224.188 330.156 224.221 330.217 224.266C330.278 224.312 330.329 224.369 330.367 224.434C330.404 224.5 330.428 224.572 330.436 224.646C330.444 224.721 330.437 224.796 330.414 224.868V224.868ZM324.885 231.258C324.927 231.107 324.906 230.947 324.828 230.811C324.75 230.675 324.62 230.574 324.466 230.53C324.353 230.5 324.233 230.504 324.121 230.54C324.01 230.577 323.912 230.644 323.84 230.735C323.768 230.825 323.724 230.934 323.716 231.048C323.707 231.163 323.733 231.277 323.79 231.377C323.848 231.477 323.934 231.558 324.039 231.61C324.143 231.662 324.261 231.683 324.378 231.671C324.495 231.658 324.605 231.612 324.695 231.539C324.786 231.465 324.851 231.367 324.885 231.258V231.258Z" fill="white"/>
<g filter="url(#filter4_d_33:425)">
<path d="M29.4264 127.334C28.4736 124.749 26.7989 122.474 24.5906 120.765C22.3824 119.056 19.7282 117.981 16.9269 117.661C14.1255 117.341 11.2881 117.79 8.73401 118.955C6.17989 120.12 4.01042 121.957 2.46971 124.258C0.929 126.559 0.0782019 129.233 0.0130747 131.979C-0.0520525 134.725 0.671069 137.435 2.10106 139.802C3.53105 142.17 5.61116 144.102 8.10731 145.381C10.6035 146.66 13.4166 147.235 16.2301 147.042L20.7135 151.219C20.9145 151.409 21.166 151.54 21.4396 151.597C21.7132 151.654 21.9977 151.635 22.2609 151.543C22.5241 151.45 22.7553 151.288 22.9283 151.074C23.1012 150.859 23.2089 150.602 23.2392 150.331L23.9864 144.335C26.6721 142.466 28.657 139.794 29.6391 136.725C30.6211 133.656 30.5464 130.358 29.4264 127.334V127.334Z" fill="#6CE5E7"/>
</g>
<path d="M23.8519 131.759L23.6128 131.847C23.9252 131.769 24.2562 131.808 24.54 131.957C24.8238 132.106 25.0398 132.354 25.1451 132.65C25.2505 132.947 25.2374 133.272 25.1086 133.56C24.9798 133.847 24.7446 134.078 24.4497 134.204L24.1508 134.321C24.3144 134.262 24.4885 134.237 24.6625 134.247C24.8365 134.256 25.0066 134.301 25.1622 134.377C25.3178 134.454 25.4556 134.56 25.567 134.691C25.6784 134.822 25.761 134.973 25.8097 135.136C25.9013 135.449 25.8673 135.784 25.7147 136.073C25.562 136.362 25.3022 136.584 24.9877 136.693L23.7623 137.115L22.5966 137.523L19.0248 138.775C17.8864 139.235 16.6507 139.419 15.4231 139.313C15.2488 139.284 15.0855 139.211 14.9492 139.101C14.8129 138.991 14.7084 138.849 14.6459 138.687L12.1203 131.847C12.0584 131.682 12.0437 131.504 12.078 131.333C12.1122 131.161 12.194 131.001 12.3146 130.871C12.7526 130.268 13.0593 129.583 13.2161 128.86C13.3729 128.136 13.3763 127.39 13.2262 126.665C12.733 124.613 11.9708 123.754 12.6732 123.565C13.2073 123.34 13.8077 123.315 14.3593 123.495C14.9109 123.675 15.3748 124.047 15.6622 124.54C16.2894 125.443 16.6322 126.506 16.6486 127.596C16.7382 128.834 18.0534 128.499 18.0534 128.499L20.1008 127.771H20.3399L22.477 127.014C22.7907 126.898 23.1386 126.904 23.4478 127.031C23.757 127.159 24.0036 127.398 24.1359 127.698C24.203 127.855 24.2368 128.023 24.2352 128.192C24.2337 128.361 24.1969 128.529 24.1271 128.684C24.0572 128.839 23.9557 128.979 23.8288 129.094C23.7019 129.21 23.5521 129.3 23.3887 129.358L23.0748 129.459C23.2348 129.406 23.404 129.384 23.5728 129.394C23.7416 129.404 23.9067 129.446 24.0586 129.519C24.2106 129.591 24.3464 129.692 24.4584 129.815C24.5704 129.939 24.6563 130.082 24.7113 130.238C24.7662 130.394 24.7891 130.559 24.7787 130.723C24.7682 130.888 24.7247 131.048 24.6504 131.196C24.5762 131.344 24.4727 131.477 24.346 131.586C24.2192 131.695 24.0717 131.778 23.9117 131.832L23.8519 131.759ZM11.5673 131.657L14.5563 139.604C14.6053 139.749 14.5954 139.907 14.5287 140.045C14.462 140.183 14.3435 140.291 14.1976 140.347L9.80384 141.889C9.65518 141.941 9.49163 141.933 9.34884 141.868C9.20606 141.802 9.09564 141.685 9.04165 141.54L6.0527 133.593C6.00371 133.448 6.01359 133.29 6.0803 133.152C6.14701 133.014 6.26549 132.906 6.41138 132.851L10.8799 131.308C11.0184 131.277 11.1637 131.295 11.2896 131.359C11.4156 131.423 11.5141 131.529 11.5673 131.657ZM10.8799 139.983C10.8585 139.905 10.8208 139.832 10.7691 139.769C10.7174 139.706 10.6529 139.654 10.5795 139.617C10.5062 139.58 10.4257 139.557 10.3431 139.552C10.2605 139.546 10.1777 139.558 10.0998 139.585C10.0219 139.612 9.95069 139.655 9.89067 139.711C9.83064 139.766 9.7831 139.833 9.75106 139.908C9.71902 139.982 9.7032 140.062 9.70456 140.142C9.70593 140.223 9.72447 140.303 9.75901 140.376C9.78034 140.454 9.81806 140.526 9.86976 140.589C9.92145 140.652 9.98601 140.704 10.0593 140.742C10.1327 140.779 10.2132 140.801 10.2958 140.807C10.3783 140.812 10.4612 140.801 10.5391 140.774C10.617 140.746 10.6882 140.703 10.7482 140.648C10.8082 140.592 10.8558 140.525 10.8878 140.451C10.9198 140.377 10.9357 140.297 10.9343 140.216C10.9329 140.136 10.9144 140.056 10.8799 139.983V139.983Z" fill="white"/>
</g>
<defs>
<filter id="filter0_b_33:425" x="-7.81982" y="294.571" width="521.82" height="106.429" filterUnits="userSpaceOnUse" color-interpolation-filters="sRGB">
<feFlood flood-opacity="0" result="BackgroundImageFix"/>
<feGaussianBlur in="BackgroundImage" stdDeviation="10"/>
<feComposite in2="SourceAlpha" operator="in" result="effect1_backgroundBlur_33:425"/>
<feBlend mode="normal" in="SourceGraphic" in2="effect1_backgroundBlur_33:425" result="shape"/>
</filter>
<filter id="filter1_d_33:425" x="53" y="-0.999969" width="433" height="374" filterUnits="userSpaceOnUse" color-interpolation-filters="sRGB">
<feFlood flood-opacity="0" result="BackgroundImageFix"/>
<feColorMatrix in="SourceAlpha" type="matrix" values="0 0 0 0 0 0 0 0 0 0 0 0 0 0 0 0 0 0 127 0" result="hardAlpha"/>
<feOffset dy="8"/>
<feGaussianBlur stdDeviation="12"/>
<feComposite in2="hardAlpha" operator="out"/>
<feColorMatrix type="matrix" values="0 0 0 0 0 0 0 0 0 0 0 0 0 0 0 0 0 0 0.15 0"/>
<feBlend mode="normal" in2="BackgroundImageFix" result="effect1_dropShadow_33:425"/>
<feBlend mode="normal" in="SourceGraphic" in2="effect1_dropShadow_33:425" result="shape"/>
</filter>
<filter id="filter2_d_33:425" x="362.577" y="7.97836" width="78.3379" height="83.215" filterUnits="userSpaceOnUse" color-interpolation-filters="sRGB">
<feFlood flood-opacity="0" result="BackgroundImageFix"/>
<feColorMatrix in="SourceAlpha" type="matrix" values="0 0 0 0 0 0 0 0 0 0 0 0 0 0 0 0 0 0 127 0" result="hardAlpha"/>
<feOffset dy="8"/>
<feGaussianBlur stdDeviation="12"/>
<feComposite in2="hardAlpha" operator="out"/>
<feColorMatrix type="matrix" values="0 0 0 0 0 0 0 0 0 0 0 0 0 0 0 0 0 0 0.23 0"/>
<feBlend mode="normal" in2="BackgroundImageFix" result="effect1_dropShadow_33:425"/>
<feBlend mode="normal" in="SourceGraphic" in2="effect1_dropShadow_33:425" result="shape"/>
</filter>
<filter id="filter3_d_33:425" x="293.813" y="196.653" width="78.3081" height="82.5335" filterUnits="userSpaceOnUse" color-interpolation-filters="sRGB">
<feFlood flood-opacity="0" result="BackgroundImageFix"/>
<feColorMatrix in="SourceAlpha" type="matrix" values="0 0 0 0 0 0 0 0 0 0 0 0 0 0 0 0 0 0 127 0" result="hardAlpha"/>
<feOffset dy="8"/>
<feGaussianBlur stdDeviation="12"/>
<feComposite in2="hardAlpha" operator="out"/>
<feColorMatrix type="matrix" values="0 0 0 0 0.203922 0 0 0 0 0.00392157 0 0 0 0 0.556863 0 0 0 0.23 0"/>
<feBlend mode="normal" in2="BackgroundImageFix" result="effect1_dropShadow_33:425"/>
<feBlend mode="normal" in="SourceGraphic" in2="effect1_dropShadow_33:425" result="shape"/>
</filter>
<filter id="filter4_d_33:425" x="-23.991" y="101.561" width="78.3157" height="82.0685" filterUnits="userSpaceOnUse" color-interpolation-filters="sRGB">
<feFlood flood-opacity="0" result="BackgroundImageFix"/>
<feColorMatrix in="SourceAlpha" type="matrix" values="0 0 0 0 0 0 0 0 0 0 0 0 0 0 0 0 0 0 127 0" result="hardAlpha"/>
<feOffset dy="8"/>
<feGaussianBlur stdDeviation="12"/>
<feComposite in2="hardAlpha" operator="out"/>
<feColorMatrix type="matrix" values="0 0 0 0 0.423529 0 0 0 0 0.898039 0 0 0 0 0.905882 0 0 0 0.23 0"/>
<feBlend mode="normal" in2="BackgroundImageFix" result="effect1_dropShadow_33:425"/>
<feBlend mode="normal" in="SourceGraphic" in2="effect1_dropShadow_33:425" result="shape"/>
</filter>
<linearGradient id="paint0_linear_33:425" x1="65" y1="211.5" x2="73.7647" y2="337.757" gradientUnits="userSpaceOnUse">
<stop stop-color="#34018E"/>
<stop offset="1" stop-color="#6CE5E7"/>
</linearGradient>
<linearGradient id="paint1_linear_33:425" x1="83" y1="197" x2="75.9917" y2="350.231" gradientUnits="userSpaceOnUse">
<stop stop-color="#34018E"/>
<stop offset="1" stop-color="#6CE5E7"/>
</linearGradient>
<linearGradient id="paint2_linear_33:425" x1="302.702" y1="226.226" x2="302.702" y2="295.959" gradientUnits="userSpaceOnUse">
<stop stop-color="#34018E"/>
<stop offset="1" stop-color="#6CE5E7"/>
</linearGradient>
<linearGradient id="paint3_linear_33:425" x1="278.293" y1="224.779" x2="278.293" y2="281.982" gradientUnits="userSpaceOnUse">
<stop stop-color="#34018E"/>
<stop offset="1" stop-color="#6CE5E7"/>
</linearGradient>
<linearGradient id="paint4_linear_33:425" x1="237.5" y1="212.5" x2="265.146" y2="277.073" gradientUnits="userSpaceOnUse">
<stop stop-color="#6CE5E7"/>
<stop offset="1" stop-color="#34018E"/>
</linearGradient>
<linearGradient id="paint5_linear_33:425" x1="369.864" y1="69.7982" x2="369.864" y2="95.9246" gradientUnits="userSpaceOnUse">
<stop stop-color="#34018E"/>
<stop offset="1" stop-color="#6CE5E7"/>
</linearGradient>
<linearGradient id="paint6_linear_33:425" x1="341.853" y1="61.9677" x2="341.853" y2="129.941" gradientUnits="userSpaceOnUse">
<stop stop-color="#34018E"/>
<stop offset="1" stop-color="#6CE5E7"/>
</linearGradient>
<linearGradient id="paint7_linear_33:425" x1="342" y1="66" x2="360.21" y2="102.396" gradientUnits="userSpaceOnUse">
<stop stop-color="#34018E"/>
<stop offset="1" stop-color="#6CE5E7"/>
</linearGradient>
<clipPath id="clip0_33:425">
<rect width="494" height="381" fill="white"/>
</clipPath>
</defs>
</svg>
