<svg width="24" height="24" viewBox="0 0 24 24" fill="none" xmlns="http://www.w3.org/2000/svg">
<path d="M23.04 0.105713H0.96C0.429 0.105713 0 0.531225 0 1.05791V22.9584C0 23.4851 0.429 23.9106 0.96 23.9106H23.04C23.571 23.9106 24 23.4851 24 22.9584V1.05791C24 0.531225 23.571 0.105713 23.04 0.105713ZM7.119 20.3904H3.558V9.02957H7.119V20.3904ZM5.34 7.4763C4.93178 7.4763 4.53273 7.35623 4.1933 7.13128C3.85388 6.90633 3.58933 6.5866 3.43311 6.21252C3.27689 5.83843 3.23602 5.42681 3.31566 5.02969C3.3953 4.63256 3.59188 4.26778 3.88053 3.98148C4.16919 3.69517 4.53696 3.50019 4.93733 3.4212C5.33771 3.3422 5.75271 3.38275 6.12986 3.53769C6.50701 3.69264 6.82936 3.95504 7.05615 4.2917C7.28295 4.62837 7.404 5.02418 7.404 5.42908C7.401 6.55981 6.477 7.4763 5.34 7.4763ZM20.451 20.3904H16.893V14.8647C16.893 13.5465 16.869 11.8534 15.042 11.8534C13.191 11.8534 12.906 13.2877 12.906 14.7695V20.3904H9.351V9.02957H12.765V10.5828H12.813C13.287 9.69015 14.448 8.74688 16.182 8.74688C19.788 8.74688 20.451 11.1006 20.451 14.1595V20.3904Z" fill="#34018E"/>
</svg>
