<svg width="100vw" height="300" viewBox="0 0 390 395" fill="none" xmlns="http://www.w3.org/2000/svg">
<g clip-path="url(#clip0_423:144)">
<path d="M27.9726 40.545L220.496 43.9222C225.61 44.0117 230.495 46.0601 234.14 49.6443C237.785 53.2284 239.913 58.0744 240.083 63.1808L249.393 342.234C249.458 344.203 249.127 346.166 248.418 348.004C247.709 349.843 246.638 351.52 245.267 352.936C243.896 354.353 242.254 355.479 240.438 356.249C238.623 357.019 236.671 357.416 234.698 357.417L13.9706 357.558C12.1156 357.56 10.2789 357.191 8.56788 356.476C6.85684 355.76 5.30575 354.711 4.0052 353.39C2.70466 352.068 1.68074 350.501 0.993261 348.78C0.305781 347.06 -0.0314752 345.219 0.00118823 343.366L4.93365 62.7673C4.98516 59.797 5.62198 56.8659 6.80776 54.1415C7.99353 51.4171 9.70502 48.9527 11.8445 46.889C13.9839 44.8254 16.5094 43.203 19.2767 42.1145C22.044 41.026 24.9989 40.4927 27.9726 40.545Z" fill="url(#paint0_linear_423:144)"/>
<path d="M46.2984 353.48L21.6135 352.729C13.3041 352.475 6.66346 345.516 6.80899 337.213L7.46317 299.978C7.46464 299.895 7.48236 299.814 7.51532 299.738C7.54829 299.663 7.59584 299.594 7.65528 299.537C7.71472 299.48 7.78487 299.435 7.86173 299.404C7.93859 299.374 8.02064 299.359 8.10321 299.361C8.26937 299.366 8.42704 299.435 8.54245 299.555C8.65786 299.674 8.72183 299.834 8.72065 300L8.06648 337.234C7.92519 344.855 14.0275 351.24 21.6516 351.473L46.3366 352.225C46.4191 352.227 46.5005 352.246 46.5758 352.28C46.6512 352.313 46.7192 352.362 46.7758 352.422C46.8324 352.482 46.8766 352.553 46.9057 352.63C46.9348 352.707 46.9484 352.789 46.9455 352.872C46.9432 352.954 46.9245 353.035 46.8907 353.11C46.8569 353.186 46.8085 353.253 46.7484 353.31C46.6883 353.366 46.6176 353.411 46.5404 353.44C46.4631 353.469 46.3809 353.483 46.2984 353.48Z" fill="#91B3FA"/>
<path d="M8.27545 289.082C8.10993 289.078 7.95284 289.008 7.83829 288.889C7.72375 288.77 7.66099 288.61 7.66366 288.444L7.76962 282.414C7.77091 282.331 7.78851 282.25 7.82141 282.174C7.85431 282.099 7.90186 282.03 7.96133 281.973C8.02081 281.915 8.09104 281.87 8.16798 281.84C8.24491 281.81 8.32705 281.796 8.40967 281.797C8.57569 281.801 8.7335 281.87 8.84865 281.99C8.9638 282.109 9.02694 282.269 9.02429 282.435L8.91832 288.466C8.91704 288.548 8.89944 288.63 8.86654 288.705C8.83364 288.781 8.78609 288.85 8.72661 288.907C8.66714 288.964 8.59691 289.009 8.51997 289.039C8.44303 289.069 8.36089 289.084 8.27827 289.082H8.27545Z" fill="#91B3FA"/>
<path d="M28.6045 38.2955C54.8323 42.3177 145.047 54.9178 219.896 50.4976C220.705 50.4475 221.517 50.56 222.283 50.8284C223.048 51.0967 223.752 51.5156 224.353 52.0602C224.954 52.6048 225.44 53.2641 225.782 53.9992C226.123 54.7343 226.314 55.5304 226.343 56.3403L236.321 336.649C236.387 338.495 235.72 340.292 234.464 341.648C233.208 343.004 231.466 343.808 229.618 343.884C198.147 345.191 68.5461 350.104 22.4555 344.463C21.1009 344.296 19.8557 343.635 18.9584 342.608C18.0611 341.581 17.5746 340.259 17.5923 338.896L21.0299 44.7155C21.0404 43.7748 21.2531 42.8473 21.6536 41.9957C22.0541 41.1442 22.633 40.3885 23.3512 39.7798C24.0694 39.1711 24.91 38.7236 25.8164 38.4675C26.7227 38.2114 27.6735 38.1528 28.6045 38.2955Z" fill="#5018B4"/>
<path d="M31.2918 45.6086C56.5335 49.4798 143.35 61.6056 215.38 57.352C216.159 57.3044 216.94 57.4131 217.677 57.6715C218.413 57.93 219.091 58.3331 219.669 58.857C220.247 59.381 220.715 60.0152 221.044 60.7224C221.373 61.4295 221.557 62.1953 221.585 62.9746L231.193 332.728C231.257 334.504 230.614 336.234 229.405 337.538C228.196 338.843 226.52 339.617 224.742 339.691C194.456 340.949 69.7456 345.676 25.3802 340.247C24.0756 340.086 22.8763 339.45 22.0125 338.46C21.1486 337.471 20.681 336.197 20.6992 334.884L24.0083 51.7788C24.0198 50.8748 24.2252 49.9837 24.6108 49.1657C24.9964 48.3477 25.5531 47.6218 26.2434 47.037C26.9337 46.4522 27.7416 46.0221 28.6125 45.7757C29.4834 45.5293 30.397 45.4723 31.2918 45.6086Z" fill="white"/>
<path opacity="0.6" d="M212.914 80.9942C213.155 81.0011 213.394 80.9579 213.617 80.8674C213.84 80.7769 214.042 80.6411 214.21 80.4686C214.377 80.2961 214.507 80.0906 214.591 79.8653C214.675 79.6399 214.711 79.3996 214.697 79.1595V79.0184C214.665 78.513 214.446 78.0375 214.083 77.6834C213.721 77.3293 213.24 77.1217 212.733 77.1005L49.3148 72.9456C48.2848 72.9188 47.9556 73.5666 48.5829 74.3823L50.3476 76.6785C50.9834 77.4942 52.3328 78.1773 53.3642 78.1956L212.914 80.9942Z" fill="#BEBEBE"/>
<path opacity="0.6" d="M49.1253 83.7166C48.0953 83.6898 47.7661 84.3376 48.3934 85.1533L50.1582 87.4495C50.7869 88.2723 52.1433 88.9497 53.1747 88.9666L212.723 91.7652C212.964 91.7723 213.204 91.7293 213.427 91.6389C213.65 91.5485 213.852 91.4127 214.02 91.2401C214.188 91.0676 214.318 90.8621 214.402 90.6366C214.486 90.4112 214.522 90.1707 214.508 89.9305V89.7894C214.475 89.284 214.257 88.8085 213.894 88.4544C213.531 88.1003 213.051 87.8927 212.544 87.8715L49.1253 83.7166Z" fill="#BEBEBE"/>
<path d="M75.5892 182.101H75.5285L53.8587 182.215C50.7347 182.23 48.1265 180.121 47.7832 177.308L45.6143 159.177C45.5515 158.639 45.5989 158.093 45.7539 157.574C45.9089 157.054 46.1681 156.572 46.5158 156.155C46.9285 155.664 47.4354 155.261 48.0066 154.969C48.5778 154.676 49.2018 154.501 49.8418 154.453C51.6687 154.302 54.1822 154.051 56.9487 153.775C62.9719 153.172 69.7991 152.489 73.8132 152.38H73.9022C76.7747 152.338 79.2713 154.051 79.9947 156.57C81.1886 160.729 81.2055 168.626 81.1151 177.034C81.0854 179.795 78.6129 182.055 75.5892 182.101ZM49.9944 156.215C49.5909 156.242 49.1969 156.35 48.8357 156.531C48.4744 156.713 48.1531 156.964 47.8905 157.272C47.6948 157.505 47.5482 157.775 47.4596 158.066C47.371 158.357 47.3422 158.663 47.3748 158.965L49.5507 177.096C49.7796 179.018 51.6305 180.458 53.8544 180.447L75.5256 180.334H75.568C77.6394 180.303 79.3334 178.821 79.3532 177.016C79.4422 168.738 79.4281 160.983 78.3006 157.052C77.8018 155.311 75.8987 154.04 73.8683 154.144C69.9122 154.252 62.8278 154.961 57.131 155.53C54.3532 155.812 51.8283 156.061 49.9944 156.213V156.215Z" fill="#D7D7D7"/>
<path opacity="0.6" d="M52.3442 158.003C56.8909 157.625 66.77 156.474 71.4608 156.346C73.4488 156.292 75.2107 157.467 75.6996 159.181C76.6547 162.512 76.6335 169.182 76.5671 175.336C76.5473 177.18 74.8716 178.675 72.8059 178.687L55.4879 178.777C53.3586 178.788 51.5685 177.366 51.3424 175.477L49.6045 160.989C49.4293 159.49 50.6586 158.143 52.3442 158.003Z" fill="#D7D7D7"/>
<path opacity="0.6" d="M94.4261 162.975C93.3947 162.966 92.7786 163.771 93.0556 164.761L95.0619 171.928C95.3445 172.916 96.4112 173.719 97.4412 173.705L206.353 172.092C206.597 172.088 206.837 172.035 207.061 171.937C207.284 171.839 207.486 171.698 207.654 171.521C207.822 171.344 207.953 171.136 208.04 170.908C208.127 170.68 208.167 170.437 208.158 170.193L207.999 165.865C207.974 165.363 207.76 164.889 207.4 164.538C207.039 164.188 206.559 163.987 206.056 163.977L94.4261 162.975Z" fill="#D3D3D3"/>
<path d="M76.882 133.503H76.8226L55.1514 133.617C52.0274 133.633 49.4192 131.523 49.0759 128.71L46.9071 110.579C46.8445 110.041 46.8922 109.495 47.0471 108.976C47.2021 108.456 47.4611 107.974 47.8085 107.557C48.2217 107.068 48.7288 106.666 49.3001 106.375C49.8713 106.084 50.495 105.91 51.1345 105.864C52.9614 105.712 55.4749 105.46 58.2414 105.184C64.2647 104.581 71.0918 103.898 75.1073 103.789H75.1949C78.0674 103.747 80.564 105.46 81.2888 107.979C82.4813 112.139 82.4983 120.033 82.4093 128.443C82.3782 131.197 79.9056 133.458 76.882 133.503ZM51.2814 107.617C50.878 107.644 50.484 107.752 50.1227 107.933C49.7615 108.115 49.4401 108.367 49.1776 108.674C48.9814 108.907 48.8347 109.177 48.7463 109.468C48.6578 109.759 48.6296 110.065 48.6633 110.367L50.842 128.494C51.0723 130.416 52.9218 131.856 55.1457 131.844L76.817 131.732H76.8593C78.9321 131.7 80.6247 130.219 80.6445 128.412C80.7335 120.136 80.7194 112.381 79.5919 108.449C79.0932 106.709 77.19 105.438 75.1596 105.542C71.2035 105.649 64.1191 106.359 58.4223 106.928C55.6459 107.212 53.1154 107.466 51.2814 107.617Z" fill="#D3D3D3"/>
<path opacity="0.6" d="M53.637 109.405C58.1894 109.027 68.0628 107.877 72.7537 107.748C74.7416 107.694 76.5035 108.869 76.9924 110.583C77.9475 113.915 77.9263 120.584 77.8599 126.738C77.8401 128.582 76.1644 130.078 74.0988 130.089L56.7807 130.179C54.6515 130.19 52.8613 128.768 52.6352 126.88L50.9002 112.391C50.7208 110.892 51.9514 109.545 53.637 109.405Z" fill="#D3D3D3"/>
<path opacity="0.6" d="M95.7191 114.381C94.6876 114.373 94.0716 115.176 94.3485 116.168L96.3549 123.334C96.6375 124.322 97.7042 125.125 98.7342 125.11L207.646 123.498C207.89 123.494 208.13 123.442 208.354 123.344C208.577 123.246 208.779 123.104 208.947 122.927C209.115 122.751 209.246 122.542 209.333 122.314C209.42 122.086 209.46 121.844 209.451 121.6L209.292 117.272C209.268 116.769 209.054 116.295 208.693 115.945C208.332 115.594 207.852 115.393 207.349 115.383L95.7191 114.381Z" fill="#CBCBCB"/>
<path d="M54.6006 112.239C54.9792 112.009 55.3999 111.858 55.8379 111.793C56.276 111.728 56.7227 111.751 57.1517 111.86C57.5808 111.97 57.9836 112.164 58.3364 112.432C58.6893 112.699 58.9852 113.034 59.2067 113.417L63.5952 121.006C63.6939 121.177 63.8384 121.318 64.0126 121.412C64.1868 121.506 64.3838 121.55 64.5815 121.538C64.7792 121.527 64.9698 121.461 65.132 121.347C65.2942 121.234 65.4215 121.077 65.4998 120.896L75.7504 97.1634C76.2619 95.9794 78.021 96.3519 78.021 97.6405C78.021 104.852 76.3071 118.587 64.9445 130.23C64.9445 130.23 58.5511 127.856 53.2654 116.704C52.8971 115.927 52.8297 115.04 53.0761 114.216C53.3226 113.392 53.8656 112.687 54.6006 112.239Z" fill="url(#paint1_linear_423:144)"/>
<path d="M64.9446 131.175C64.8328 131.176 64.7218 131.156 64.6168 131.118C64.3413 131.014 57.8052 128.48 52.4192 117.115C51.9473 116.128 51.8595 115.001 52.1729 113.953C52.4862 112.905 53.1783 112.011 54.1147 111.444C54.5999 111.149 55.1394 110.953 55.7015 110.868C56.2636 110.784 56.8368 110.813 57.3876 110.953C57.9383 111.093 58.4555 111.342 58.9087 111.685C59.3618 112.027 59.7418 112.457 60.0263 112.949L64.4063 120.538C64.4176 120.56 64.4353 120.578 64.457 120.59C64.4787 120.601 64.5034 120.606 64.5278 120.603C64.5524 120.604 64.5763 120.596 64.5964 120.582C64.6164 120.568 64.6315 120.548 64.6394 120.524L74.8901 96.7949C75.0765 96.3425 75.4169 95.9706 75.8513 95.7446C76.2856 95.5187 76.7859 95.4533 77.2638 95.56C77.7449 95.6559 78.1775 95.9164 78.487 96.2966C78.7965 96.6769 78.9635 97.153 78.9593 97.643C78.9593 104.954 77.2228 118.993 65.6158 130.886C65.5291 130.977 65.425 131.049 65.3097 131.099C65.1944 131.149 65.0702 131.175 64.9446 131.175ZM55.0882 113.039C54.549 113.366 54.1507 113.881 53.9705 114.485C53.7904 115.089 53.8413 115.738 54.1133 116.306C58.2955 125.131 63.1389 128.265 64.7327 129.101C75.4623 117.786 77.0829 104.571 77.0843 97.643C77.0903 97.5832 77.0724 97.5235 77.0346 97.4768C76.9968 97.43 76.9421 97.4 76.8823 97.3932C76.8553 97.3845 76.8269 97.3813 76.7986 97.3837C76.7703 97.3861 76.7428 97.3941 76.7177 97.4072C76.6926 97.4204 76.6703 97.4384 76.6523 97.4602C76.6342 97.482 76.6206 97.5073 76.6124 97.5344L66.3604 121.264C66.2131 121.605 65.9738 121.898 65.6692 122.111C65.3647 122.324 65.0068 122.448 64.6357 122.47C64.2645 122.491 63.8947 122.409 63.5675 122.233C63.2403 122.057 62.9687 121.793 62.7829 121.471L58.3958 113.886C58.237 113.61 58.0246 113.369 57.7713 113.177C57.5179 112.985 57.2287 112.845 56.9205 112.767C56.6123 112.688 56.2915 112.671 55.9768 112.718C55.6621 112.765 55.36 112.874 55.0882 113.039Z" fill="#CECECE"/>
<path d="M76.2746 228.487H76.2138L54.544 228.598C51.4201 228.615 48.8104 226.506 48.4685 223.693L46.294 205.562C46.2311 205.024 46.2786 204.478 46.4336 203.959C46.5886 203.439 46.8478 202.957 47.1955 202.54C47.6087 202.051 48.1158 201.649 48.687 201.358C49.2582 201.067 49.882 200.893 50.5215 200.847C52.3483 200.694 54.8619 200.443 57.6284 200.167C63.6516 199.564 70.4788 198.881 74.4929 198.771H74.5819C77.4544 198.728 79.951 200.442 80.6744 202.961C81.8683 207.12 81.8853 215.016 81.7948 223.425C81.7736 226.181 79.301 228.442 76.2746 228.487ZM50.6769 202.601C50.2734 202.628 49.8795 202.736 49.5182 202.918C49.1569 203.099 48.8356 203.351 48.5731 203.658C48.3773 203.891 48.2307 204.161 48.1421 204.452C48.0535 204.743 48.0247 205.049 48.0573 205.352L50.2332 223.483C50.4635 225.405 52.313 226.844 54.5369 226.833L76.2082 226.72H76.2506C78.3219 226.689 80.016 225.209 80.0358 223.401C80.1248 215.125 80.1106 207.37 78.9831 203.438C78.483 201.696 76.5812 200.449 74.5508 200.531C70.5947 200.638 63.5089 201.348 57.8121 201.917C55.0357 202.199 52.5108 202.447 50.6769 202.6V202.601Z" fill="white"/>
<path opacity="0.6" d="M53.032 204.389C57.5788 204.011 67.4579 202.861 72.1487 202.734C74.1367 202.679 75.8972 203.853 76.3874 205.568C77.3426 208.9 77.3214 215.568 77.255 221.723C77.2352 223.566 75.5595 225.063 73.4938 225.073L56.1786 225.168C54.0479 225.179 52.2592 223.756 52.0331 221.869L50.2952 207.38C50.1158 205.877 51.345 204.529 53.032 204.389Z" fill="white"/>
<path opacity="0.6" d="M95.1141 209.361C94.0827 209.351 93.4666 210.156 93.7436 211.148L95.7499 218.314C96.0325 219.302 97.0978 220.105 98.1292 220.09L207.041 218.478C207.285 218.474 207.526 218.422 207.749 218.324C207.973 218.225 208.175 218.084 208.343 217.907C208.511 217.73 208.642 217.522 208.728 217.293C208.815 217.065 208.855 216.822 208.846 216.579L208.687 212.25C208.662 211.748 208.448 211.274 208.087 210.924C207.727 210.573 207.247 210.373 206.744 210.362L95.1141 209.361Z" fill="#D3D3D3"/>
<path d="M74.9081 273.06H74.8502L53.179 273.173C50.0565 273.19 47.4468 271.08 47.1105 268.267L44.9347 250.136C44.8724 249.598 44.9203 249.053 45.0752 248.533C45.2301 248.014 45.489 247.531 45.8361 247.115C46.2491 246.624 46.7563 246.22 47.3277 245.928C47.8991 245.636 48.5233 245.46 49.1635 245.413C50.9876 245.262 53.4997 245.01 56.2634 244.734C61.9899 244.161 69.1208 243.448 73.1349 243.34C75.9862 243.283 78.5859 244.981 79.3164 247.527C80.5089 251.686 80.5273 259.581 80.4368 267.991C80.4072 270.752 77.9318 273.01 74.9081 273.06ZM49.3104 247.173C48.9068 247.2 48.5127 247.308 48.1514 247.489C47.7901 247.671 47.4689 247.923 47.2066 248.231C47.0103 248.464 46.8634 248.734 46.7747 249.025C46.6861 249.316 46.6576 249.622 46.6909 249.925L48.864 268.057C49.0943 269.978 50.9452 271.419 53.1677 271.406L74.8403 271.294C76.882 271.228 78.6481 269.793 78.6679 267.975C78.7569 259.698 78.7428 251.944 77.6153 248.012C77.1151 246.271 75.2133 245.049 73.1815 245.105C69.2254 245.211 62.1368 245.921 56.4372 246.491C53.6636 246.773 51.1416 247.02 49.309 247.173H49.3104Z" fill="#D7D7D7"/>
<path opacity="0.6" d="M51.6643 248.961C56.2124 248.584 66.0901 247.434 70.781 247.305C72.7689 247.252 74.5308 248.426 75.0197 250.141C75.9748 253.471 75.9536 260.14 75.8887 266.296C75.8689 268.139 74.1932 269.635 72.1261 269.646L54.808 269.736C52.6788 269.748 50.89 268.325 50.6639 266.437L48.9261 251.948C48.7494 250.45 49.9787 249.102 51.6643 248.961Z" fill="#D7D7D7"/>
<path opacity="0.6" d="M93.7466 253.934C92.7151 253.926 92.0991 254.729 92.3774 255.721L94.3838 262.887C94.6664 263.875 95.7317 264.678 96.7631 264.663L205.673 263.051C205.917 263.047 206.158 262.995 206.381 262.897C206.605 262.799 206.807 262.657 206.975 262.48C207.143 262.304 207.274 262.095 207.36 261.867C207.447 261.639 207.487 261.397 207.479 261.153L207.321 256.823C207.296 256.321 207.082 255.847 206.721 255.497C206.36 255.147 205.879 254.946 205.376 254.936L93.7466 253.934Z" fill="#D3D3D3"/>
<path d="M73.1292 319.03H73.0699L51.3987 319.143C48.2761 319.158 45.6665 317.05 45.3302 314.237L43.1557 296.106C43.093 295.568 43.1405 295.023 43.2952 294.504C43.4499 293.985 43.7087 293.502 44.0558 293.086C44.4684 292.595 44.9754 292.191 45.5469 291.899C46.1184 291.606 46.7428 291.431 47.3832 291.384C49.2101 291.233 51.7236 290.981 54.4901 290.704C60.5133 290.101 67.3405 289.418 71.3546 289.31C74.2991 289.31 76.807 290.952 77.5361 293.497C78.73 297.656 78.747 305.552 78.6565 313.961C78.6269 316.724 76.1529 318.985 73.1292 319.03ZM47.5301 293.144C47.1265 293.171 46.7324 293.279 46.3711 293.461C46.0098 293.643 45.6885 293.895 45.4263 294.203C45.2301 294.435 45.0832 294.705 44.9945 294.996C44.9059 295.288 44.8773 295.594 44.9106 295.896L47.0865 314.028C47.3154 315.949 49.1663 317.389 51.3902 317.377L73.0614 317.264H73.1038C75.1751 317.233 76.8692 315.753 76.889 313.947C76.978 305.669 76.9639 297.914 75.8364 293.982C75.3362 292.241 73.4344 291.038 71.4041 291.075C67.4479 291.182 60.3636 291.892 54.6653 292.461C51.8889 292.743 49.3641 292.992 47.5301 293.144Z" fill="#D7D7D7"/>
<path opacity="0.6" d="M49.884 294.932C54.4322 294.554 64.3098 293.404 69.0021 293.277C70.9901 293.222 72.7505 294.396 73.2408 296.112C74.1959 299.443 74.1748 306.111 74.1083 312.266C74.0886 314.11 72.4129 315.606 70.3472 315.616L53.0291 315.706C50.8985 315.718 49.1097 314.295 48.8837 312.408L47.1458 297.918C46.9692 296.42 48.1984 295.072 49.884 294.932Z" fill="white"/>
<path opacity="0.6" d="M91.9662 299.906C90.9362 299.896 90.3187 300.7 90.5971 301.692L92.6034 308.859C92.886 309.847 93.9513 310.65 94.9828 310.634L203.894 309.023C204.138 309.019 204.379 308.966 204.603 308.868C204.826 308.77 205.028 308.628 205.196 308.451C205.364 308.274 205.495 308.066 205.582 307.838C205.668 307.61 205.708 307.367 205.7 307.123L205.54 302.795C205.516 302.293 205.301 301.819 204.941 301.468C204.58 301.118 204.1 300.917 203.597 300.906L91.9662 299.906Z" fill="#D3D3D3"/>
<path d="M136.843 4.42868C129.973 -0.52496 123.925 -0.534839 119.646 0.645003C117.754 1.17168 116.103 2.33754 114.975 3.94389C113.847 5.55024 113.311 7.49767 113.459 9.4543L114.943 29.4947L136.747 31.8205C136.747 31.8205 150.311 14.1454 136.843 4.42868ZM126.953 20.4074C125.875 20.3885 124.828 20.0509 123.942 19.4374C123.057 18.8238 122.374 17.9618 121.979 16.9604C121.584 15.959 121.495 14.8631 121.724 13.8113C121.953 12.7595 122.488 11.7991 123.264 11.0514C124.039 10.3038 125.018 9.80256 126.079 9.61109C127.139 9.41962 128.233 9.54651 129.221 9.97573C130.209 10.4049 131.047 11.1172 131.63 12.0224C132.213 12.9277 132.514 13.9852 132.495 15.0614C132.483 15.7759 132.33 16.481 132.044 17.1364C131.759 17.7918 131.347 18.3846 130.832 18.881C130.318 19.3775 129.71 19.7678 129.045 20.0296C128.379 20.2915 127.668 20.4199 126.953 20.4074Z" fill="url(#paint2_linear_423:144)"/>
<path d="M116.893 21.6027C116.702 21.5283 116.536 21.4014 116.414 21.2365C116.292 21.0717 116.219 20.8757 116.204 20.6712L115.968 17.4789C115.957 17.3373 115.975 17.195 116.02 17.0603C116.064 16.9255 116.135 16.8008 116.228 16.6933C116.321 16.5859 116.434 16.4977 116.561 16.4339C116.688 16.3702 116.826 16.332 116.968 16.3216C117.11 16.3112 117.252 16.3289 117.387 16.3735C117.522 16.4181 117.647 16.4888 117.755 16.5815C117.862 16.6743 117.95 16.7874 118.014 16.9142C118.078 17.0411 118.116 17.1792 118.127 17.3208L118.363 20.5132C118.375 20.6948 118.342 20.8767 118.266 21.042C118.189 21.2074 118.073 21.3509 117.926 21.4594C117.78 21.5678 117.609 21.6376 117.428 21.6624C117.247 21.6872 117.063 21.6662 116.893 21.6013V21.6027ZM116.431 15.3464C116.24 15.2726 116.073 15.146 115.951 14.9813C115.829 14.8167 115.757 14.6207 115.742 14.4164L115.562 11.9932C115.416 10.0026 115.964 8.02284 117.112 6.38933C118.26 4.75583 119.938 3.56904 121.862 3.03006C124.557 2.28458 127.394 2.21815 130.121 2.83672C130.398 2.90247 130.637 3.07442 130.788 3.31535C130.939 3.55628 130.989 3.84682 130.927 4.12413C130.865 4.40143 130.696 4.6432 130.457 4.79712C130.218 4.95104 129.927 5.00474 129.649 4.9466C127.27 4.40647 124.794 4.46418 122.443 5.11454C121 5.519 119.742 6.40971 118.882 7.63549C118.021 8.86126 117.612 10.3466 117.724 11.8394L117.903 14.264C117.924 14.5497 117.831 14.8321 117.644 15.0491C117.456 15.2661 117.191 15.3999 116.904 15.4212C116.743 15.4313 116.582 15.4057 116.431 15.3464Z" fill="#91B3FA"/>
<path d="M84.9033 41.9113L85.0799 31.8488C85.0944 31.0247 85.2747 30.212 85.6103 29.4591C85.9458 28.7062 86.4297 28.0284 87.033 27.4662C87.6363 26.904 88.3468 26.4689 89.122 26.1867C89.8972 25.9046 90.7214 25.7812 91.5454 25.8239L160.957 29.4213C162.444 29.4983 163.849 30.1263 164.896 31.1825C165.944 32.2387 166.56 33.6473 166.623 35.1328L167.033 44.8115L84.9033 41.9113Z" fill="url(#paint3_linear_423:144)"/>
<path d="M63.205 37.8467L184.659 39.9749C186.774 40.0115 188.809 40.7933 190.403 42.1822C191.998 43.5711 193.05 45.478 193.374 47.5663L193.467 48.1618C193.639 49.2713 193.566 50.4048 193.254 51.4832C192.941 52.5616 192.397 53.5587 191.658 54.4047C190.919 55.2508 190.004 55.9253 188.977 56.381C187.95 56.8368 186.835 57.0627 185.711 57.0431L61.1069 54.857C60.4283 54.8451 59.7593 54.6957 59.1403 54.4179C58.5212 54.1402 57.9651 53.7398 57.5055 53.241C57.0459 52.7423 56.6925 52.1555 56.4666 51.5163C56.2407 50.8771 56.1471 50.1987 56.1913 49.5223L56.5573 43.9576C56.6674 42.2811 57.4192 40.7112 58.6569 39.5734C59.8946 38.4357 61.5232 37.8174 63.205 37.8467Z" fill="url(#paint4_linear_423:144)"/>
<path d="M108.024 30.0084C107.858 30.0047 107.699 29.9349 107.584 29.8145C107.469 29.6941 107.406 29.5328 107.41 29.3663C107.414 29.1997 107.483 29.0415 107.604 28.9263C107.725 28.8112 107.886 28.7486 108.053 28.7524L111.04 28.8046C111.122 28.8049 111.204 28.8218 111.28 28.8542C111.357 28.8867 111.425 28.934 111.483 28.9935C111.541 29.0529 111.586 29.1233 111.615 29.2004C111.645 29.2775 111.66 29.3598 111.657 29.4425C111.654 29.6092 111.585 29.7679 111.465 29.8838C111.345 29.9997 111.184 30.0633 111.017 30.0606L108.03 30.0084H108.024Z" fill="#91B3FA"/>
<path d="M88.3366 39.3003C88.13 39.2203 87.9529 39.0788 87.8294 38.8951C87.7058 38.7114 87.6417 38.4942 87.6457 38.2729L87.7163 34.2013C87.746 32.5418 88.4343 30.962 89.6297 29.8092C90.8252 28.6564 92.43 28.025 94.0914 28.0537L105.073 28.2456C105.354 28.2594 105.618 28.382 105.811 28.5873C106.003 28.7927 106.108 29.0647 106.103 29.3458C106.098 29.627 105.984 29.8951 105.784 30.0936C105.585 30.292 105.316 30.4052 105.034 30.4091L94.0532 30.2158C92.9661 30.1976 91.9161 30.6111 91.1338 31.3655C90.3516 32.1199 89.901 33.1535 89.8809 34.2394L89.8089 38.3124C89.8033 38.599 89.6841 38.8717 89.4775 39.0706C89.2709 39.2696 88.9937 39.3786 88.7068 39.3737C88.5801 39.3704 88.4549 39.3456 88.3366 39.3003Z" fill="#91B3FA"/>
<path d="M133.174 176.238C133.174 176.238 105.866 205.26 79.7544 206.849C79.7544 206.849 81.9373 221.576 85.375 223.875C85.375 223.875 120.911 204.265 133.53 181.178L133.174 176.238Z" fill="url(#paint5_linear_423:144)"/>
<path d="M152.24 242.336C154.42 238.898 156.233 233.551 154.267 226.222C150.503 212.185 137.705 212.937 131.432 215.695C126.147 218.018 119.973 231.722 127.005 241.381C128.49 243.421 127.083 246.278 124.557 246.278H94.2638V210.796C94.2638 207.666 90.9773 205.604 88.1741 207.003C84.28 208.927 80.0535 210.091 75.7221 210.431C63.6771 211.434 57.9675 200.906 58.5638 190.379C59.0809 181.248 72.3637 169.855 86.6807 179.748C89.4712 181.676 93.2846 179.645 93.2846 176.256V144.937H130.427C118.885 154.638 121.896 168.823 133.44 174.337C144.983 179.851 155.522 175.339 156.525 162.807C157.042 156.354 154.75 152.027 152.405 149.349C152.128 149.039 151.946 148.655 151.883 148.245C151.819 147.834 151.875 147.414 152.046 147.035C152.216 146.655 152.492 146.333 152.842 146.108C153.191 145.882 153.598 145.762 154.014 145.763H183.981V176.518C183.981 179.889 187.89 181.88 190.531 179.789C192.826 177.966 195.714 176.516 199.185 176.343C209.217 175.842 218.76 183.361 219.763 193.387C220.766 203.413 211.232 213.941 201.696 212.439C197.174 211.734 192.878 209.919 189.61 208.215C188.986 207.89 188.289 207.731 187.586 207.753C186.882 207.776 186.197 207.979 185.595 208.343C184.994 208.708 184.497 209.222 184.152 209.834C183.807 210.447 183.627 211.138 183.627 211.841V247.03H154.832C154.284 247.032 153.744 246.886 153.271 246.608C152.798 246.331 152.408 245.931 152.143 245.451C151.878 244.971 151.747 244.428 151.764 243.88C151.781 243.332 151.945 242.799 152.24 242.336Z" fill="url(#paint6_linear_423:144)"/>
<path d="M183.628 247.963H154.832C154.116 247.965 153.412 247.775 152.794 247.412C152.176 247.049 151.667 246.527 151.321 245.901C150.974 245.274 150.803 244.566 150.824 243.851C150.845 243.135 151.058 242.439 151.441 241.834C153.377 238.784 155.28 233.648 153.356 226.465C152.042 221.562 149.496 218.176 145.791 216.401C140.973 214.093 135.245 215.039 131.803 216.552C129.693 217.479 126.858 221.026 125.505 226.008C124.641 229.203 123.785 235.376 127.757 240.826C128.2 241.428 128.467 242.141 128.528 242.886C128.589 243.63 128.441 244.377 128.102 245.043C127.769 245.697 127.26 246.246 126.634 246.629C126.007 247.011 125.286 247.212 124.551 247.209H94.2638C94.0154 247.209 93.7771 247.111 93.6014 246.935C93.4258 246.76 93.3271 246.522 93.3271 246.274V210.797C93.3291 210.233 93.186 209.679 92.9116 209.187C92.6372 208.695 92.2407 208.282 91.7602 207.987C91.2887 207.694 90.7496 207.527 90.1948 207.502C89.64 207.477 89.0882 207.596 88.5924 207.846C84.5928 209.827 80.2505 211.024 75.7999 211.374C70.8646 211.785 66.5496 210.345 63.3239 207.208C59.3762 203.369 57.2484 197.062 57.6285 190.336C57.9252 185.094 62.0184 179.536 67.581 176.82C71.191 175.058 78.5438 172.995 87.2205 178.987C87.7064 179.329 88.2781 179.529 88.8714 179.564C89.4646 179.599 90.056 179.468 90.579 179.186C91.117 178.912 91.5679 178.494 91.8811 177.978C92.1943 177.462 92.3574 176.87 92.3522 176.266V144.937C92.3522 144.689 92.451 144.45 92.6269 144.274C92.8029 144.099 93.0415 144 93.2903 144H130.427C130.62 143.999 130.808 144.058 130.966 144.168C131.124 144.278 131.244 144.434 131.31 144.614C131.376 144.795 131.385 144.992 131.335 145.177C131.285 145.363 131.179 145.529 131.032 145.653C125.909 149.958 123.477 155.391 124.185 160.928C124.86 166.229 128.472 170.926 133.844 173.489C139.57 176.226 145.206 176.443 149.307 174.085C152.941 171.994 155.172 167.962 155.591 162.729C156.096 156.428 153.754 152.308 151.7 149.961C151.304 149.516 151.045 148.966 150.955 148.378C150.865 147.789 150.947 147.187 151.192 146.644C151.436 146.101 151.833 145.64 152.334 145.317C152.835 144.995 153.418 144.823 154.014 144.824H183.981C184.104 144.824 184.226 144.848 184.34 144.895C184.454 144.942 184.557 145.011 184.644 145.098C184.731 145.185 184.8 145.288 184.848 145.401C184.895 145.515 184.919 145.637 184.919 145.76V176.515C184.918 177.117 185.089 177.708 185.411 178.217C185.734 178.727 186.195 179.134 186.74 179.391C187.25 179.65 187.825 179.755 188.394 179.696C188.963 179.636 189.502 179.413 189.948 179.054C192.79 176.796 195.882 175.566 199.131 175.404C209.967 174.858 219.647 182.884 220.688 193.291C221.231 198.706 218.839 204.646 214.445 208.791C210.63 212.386 205.932 214.05 201.542 213.358C197.654 212.746 193.488 211.292 189.169 209.04C188.688 208.788 188.151 208.665 187.608 208.682C187.066 208.7 186.537 208.856 186.073 209.138C185.609 209.419 185.226 209.815 184.961 210.287C184.695 210.76 184.556 211.293 184.557 211.835V247.025C184.558 247.272 184.461 247.51 184.286 247.685C184.112 247.861 183.875 247.961 183.628 247.963ZM153.031 242.836C152.826 243.157 152.712 243.527 152.7 243.907C152.688 244.288 152.779 244.665 152.964 244.998C153.148 245.331 153.419 245.608 153.748 245.8C154.077 245.993 154.451 246.093 154.832 246.09H182.691V211.838C182.69 210.975 182.912 210.127 183.336 209.374C183.759 208.622 184.37 207.992 185.108 207.544C185.847 207.096 186.689 206.846 187.552 206.818C188.416 206.789 189.272 206.984 190.038 207.383C194.179 209.541 198.148 210.931 201.836 211.512C205.651 212.115 209.775 210.626 213.159 207.433C217.139 203.678 219.311 198.331 218.825 193.48C217.896 184.213 208.922 176.804 199.226 177.277C196.369 177.418 193.638 178.512 191.109 180.523C190.387 181.099 189.515 181.458 188.596 181.558C187.677 181.658 186.749 181.495 185.919 181.087C185.055 180.678 184.326 180.032 183.815 179.224C183.305 178.416 183.036 177.48 183.038 176.525V146.7H154.014C153.781 146.695 153.551 146.76 153.354 146.886C153.157 147.011 153.001 147.192 152.907 147.405C152.806 147.622 152.771 147.864 152.808 148.1C152.844 148.337 152.95 148.557 153.112 148.733C155.402 151.351 158.017 155.931 157.459 162.883C156.99 168.748 154.427 173.304 150.243 175.71C145.599 178.382 139.327 178.189 133.034 175.184C127.086 172.34 123.082 167.101 122.326 161.167C121.635 155.756 123.702 150.292 128.037 145.874H94.2257V176.258C94.2266 177.202 93.9682 178.128 93.4787 178.936C92.9892 179.743 92.2872 180.401 91.4493 180.838C90.6238 181.281 89.691 181.486 88.7555 181.429C87.8199 181.373 86.9186 181.058 86.1523 180.519C78.2626 175.071 71.646 176.911 68.4047 178.493C63.4228 180.927 59.7605 185.832 59.5034 190.433C59.1516 196.626 61.0703 202.391 64.6351 205.858C67.4991 208.644 71.2023 209.871 75.6473 209.5C79.86 209.171 83.9707 208.039 87.7574 206.166C88.5449 205.776 89.4192 205.593 90.2973 205.636C91.1753 205.678 92.028 205.944 92.7744 206.407C93.5208 206.871 94.1361 207.518 94.562 208.286C94.9878 209.054 95.2101 209.919 95.2076 210.797V245.339H124.557C124.946 245.344 125.329 245.239 125.661 245.037C125.994 244.834 126.262 244.542 126.436 244.193C126.62 243.837 126.7 243.437 126.667 243.037C126.633 242.638 126.487 242.256 126.246 241.935C121.817 235.851 122.751 229.042 123.703 225.523C125.071 220.468 128.025 216.175 131.05 214.844C134.857 213.172 141.213 212.134 146.605 214.719C150.825 216.741 153.708 220.532 155.17 225.986C157.27 233.819 155.17 239.476 153.028 242.841L153.031 242.836Z" fill="white"/>
<path d="M67.9695 174.974C67.9695 174.974 63.143 177.325 62.2557 180.013C61.5492 182.175 56.2056 182.453 55.6786 186.706C55.4059 188.9 53.7796 190.657 51.591 190.993C46.14 191.827 37.7445 194.663 36.3952 204.11C35.3694 211.326 39.0515 214.061 42.9172 215.009C45.7557 215.704 47.6419 218.463 47.0683 221.325C46.5173 224.071 47.3382 227.252 52.1011 229.754C62.7728 235.38 73.436 216.429 73.436 216.429L75.6204 183.341L67.9695 174.974Z" fill="url(#paint7_linear_423:144)"/>
<path d="M24.1026 382.451L23.4131 388.121C23.3506 388.644 23.1136 389.131 22.7404 389.502C22.3672 389.874 21.8794 390.11 21.3559 390.171C19.5361 390.378 16.6156 390.594 13.7573 390.289C13.4625 390.256 13.1787 390.158 12.9265 390.002C12.6743 389.846 12.4599 389.636 12.2986 389.387C12.1374 389.138 12.0334 388.857 11.9942 388.563C11.9549 388.269 11.9814 387.97 12.0717 387.688C12.7682 385.499 14.0427 382.212 15.8795 380.279H22.1768C22.4514 380.279 22.723 380.337 22.9734 380.449C23.2239 380.562 23.4476 380.726 23.6297 380.931C23.8118 381.137 23.9481 381.378 24.0296 381.64C24.1111 381.902 24.136 382.179 24.1026 382.451Z" fill="url(#paint8_linear_423:144)"/>
<path d="M73.4305 316.021L74.493 322.267C74.493 322.267 70.9339 358.282 70.3009 372.689C70.2032 374.946 70.7859 377.181 71.9738 379.104L78.1623 389.144L62.4281 379.872L62.1145 377.954L64.6902 374.426L61.3204 334.071C61.1232 331.701 61.6137 329.324 62.7333 327.225L65.983 321.12L73.4305 316.021Z" fill="#FAEAC2"/>
<path d="M79.1995 390.6H74.1781C73.7142 390.601 73.2563 390.496 72.8398 390.292C72.4233 390.088 72.0593 389.791 71.7761 389.424C70.2106 387.393 66.9722 383.43 65.418 383.327C63.3312 383.186 63.5982 390.6 63.5982 390.6H62.4283L60.9462 381.389C60.7643 380.26 60.943 379.101 61.4571 378.078C61.9711 377.055 62.7943 376.22 63.8101 375.691C63.8101 375.691 64.2863 379.219 66.8733 380.771C69.4604 382.324 77.4009 387.913 77.4009 387.913C78.0801 387.834 78.7672 387.852 79.4412 387.968C81.0293 388.257 80.8089 390.6 79.1995 390.6Z" fill="url(#paint9_linear_423:144)"/>
<path d="M51.8835 318.988C51.8835 318.988 31.0303 358.504 27.7227 367.522C24.4151 376.54 23.2466 384.068 23.2014 384.781C23.1321 385.894 21.7461 386.963 17.9227 386.963C15.9447 386.963 14.9839 386.174 14.512 385.41C14.3158 385.087 14.205 384.72 14.1902 384.343C14.1754 383.966 14.2569 383.591 14.4272 383.254C15.6338 380.816 19.4614 373.023 20.88 369.488C22.5754 365.268 26.2137 346.144 28.2101 339.495C30.2066 332.846 32.4644 325.633 41.1609 318.989C41.1538 318.988 47.1234 313.148 51.8835 318.988Z" fill="url(#paint10_linear_423:144)"/>
<path d="M65.0576 254.24C70.4366 231.472 56.8091 218.595 56.8091 218.595C65.4081 210.351 81.0744 206.599 81.0744 206.599C81.0744 206.599 96.0244 217.516 94.2512 226.061C93.2113 231.068 83.7434 256.058 83.7434 256.058C83.7434 256.058 74.9876 260.202 65.0576 254.24Z" fill="url(#paint11_linear_423:144)"/>
<path d="M53.1311 265.516C55.3197 258.929 65.0575 254.24 65.0575 254.24C74.9874 260.197 83.7432 256.058 83.7432 256.058C83.7432 256.058 85.7058 263.555 84.3508 270.522C82.9958 277.49 74.4929 322.265 74.4929 322.265C61.0957 324.976 40.4912 319.537 40.4912 319.537C49.0252 304.406 50.9411 272.104 53.1311 265.516Z" fill="url(#paint12_linear_423:144)"/>
<path d="M71.3011 191.558L66.9211 211.175C66.4972 212.902 68.0797 212.62 69.8288 212.29C72.6942 211.751 76.3876 210.64 77.621 208.413C77.7407 208.182 77.8169 207.932 77.8457 207.673L79.7235 194.067C79.7962 193.542 79.6959 193.007 79.4377 192.543C79.1795 192.08 78.7775 191.713 78.2922 191.497L74.6652 189.891C74.3373 189.747 73.9819 189.677 73.624 189.686C73.266 189.694 72.9143 189.781 72.5935 189.94C72.2727 190.099 71.9908 190.326 71.7675 190.606C71.5442 190.885 71.385 191.21 71.3011 191.558Z" fill="url(#paint13_linear_423:144)"/>
<path d="M54.3917 224.66C54.3917 224.66 94.3968 273.454 124.286 217.897C124.286 217.897 124.859 216.477 124.502 214.425C124.319 213.39 125.006 209.718 125.382 207.843C125.41 207.7 125.409 207.554 125.377 207.412C125.345 207.27 125.283 207.137 125.197 207.021C125.11 206.904 124.999 206.808 124.873 206.737C124.746 206.666 124.605 206.622 124.461 206.609C124.224 206.586 123.986 206.623 123.768 206.717C123.549 206.81 123.358 206.957 123.212 207.144L117.752 214.089C117.554 214.755 117.602 215.469 117.885 216.103C118.169 216.737 118.67 217.249 119.298 217.547C119.492 217.638 119.663 217.771 119.799 217.937C119.934 218.102 120.031 218.296 120.082 218.504C120.133 218.712 120.137 218.929 120.094 219.139C120.05 219.348 119.96 219.545 119.831 219.716C97.1011 249.479 59.0825 216.82 58.386 217.202C55.9176 218.561 53.0664 220.066 54.3917 224.66Z" fill="#FAEAC2"/>
<path d="M76.4328 172.874C76.4328 172.874 81.6125 175.058 85.1349 182.535C88.6573 190.012 86.0265 193.463 82.7231 193.937C79.4197 194.411 74.4788 194.338 69.2524 189.508C64.026 184.679 69.7003 170.284 76.4328 172.874Z" fill="url(#paint14_linear_423:144)"/>
<path d="M72.7663 185.518C72.7663 185.518 68.8581 174.58 78.5663 174.45L80.8509 176.045C80.8509 176.045 84.4129 169.976 78.5663 167.086C72.7196 164.196 65.8769 166.582 63.3888 174.45C60.9006 182.318 60.4753 187.585 64.6152 191.35C68.755 195.116 70.4604 190.847 70.4604 190.847C70.4604 190.847 68.2068 187.318 69.1238 185.441C70.0407 183.564 72.1587 185.831 72.1587 185.831L72.7663 185.518Z" fill="url(#paint15_linear_423:144)"/>
<path d="M71.6768 186.735C71.6768 186.735 69.6987 181.102 67.0651 183.348C64.4314 185.595 69.2071 188.553 71.0777 189.511L71.6768 186.735Z" fill="#FAEAC2"/>
<path d="M269.258 395C269.753 395.005 270.234 394.835 270.616 394.521C270.998 394.207 271.256 393.768 271.347 393.282L304.334 203.448C304.378 203.178 304.367 202.902 304.303 202.636C304.24 202.37 304.123 202.119 303.962 201.898C303.8 201.677 303.596 201.491 303.362 201.349C303.127 201.208 302.867 201.114 302.596 201.074C302.048 200.979 301.484 201.104 301.027 201.42C300.569 201.737 300.255 202.221 300.152 202.768L267.159 392.598C267.115 392.868 267.126 393.144 267.189 393.41C267.253 393.676 267.369 393.927 267.531 394.148C267.693 394.368 267.897 394.555 268.131 394.697C268.366 394.838 268.626 394.932 268.897 394.972C269.016 394.99 269.137 395 269.258 395Z" fill="url(#paint16_linear_423:144)"/>
<path d="M380.543 395C380.686 395.001 380.828 394.987 380.967 394.959C381.237 394.911 381.494 394.809 381.724 394.661C381.953 394.512 382.151 394.319 382.306 394.093C382.46 393.868 382.568 393.613 382.623 393.346C382.679 393.078 382.68 392.802 382.627 392.533L343.738 205.168C343.617 204.626 343.287 204.153 342.82 203.851C342.353 203.55 341.785 203.444 341.24 203.557C340.971 203.605 340.714 203.707 340.484 203.856C340.255 204.004 340.057 204.197 339.903 204.423C339.748 204.649 339.64 204.903 339.585 205.171C339.53 205.438 339.529 205.714 339.582 205.983L378.468 393.348C378.571 393.819 378.834 394.241 379.212 394.542C379.59 394.843 380.06 395.005 380.543 395Z" fill="url(#paint17_linear_423:144)"/>
<path d="M294.428 250.362H350.803C351.078 250.369 351.352 250.321 351.609 250.221C351.865 250.121 352.099 249.97 352.296 249.778C352.494 249.586 352.651 249.357 352.758 249.103C352.865 248.85 352.92 248.577 352.92 248.302C352.92 248.027 352.865 247.755 352.758 247.501C352.651 247.248 352.494 247.018 352.296 246.826C352.099 246.634 351.865 246.484 351.609 246.383C351.352 246.283 351.078 246.235 350.803 246.242H294.428C294.153 246.235 293.879 246.283 293.622 246.383C293.366 246.484 293.132 246.634 292.934 246.826C292.737 247.018 292.58 247.248 292.473 247.501C292.366 247.755 292.311 248.027 292.311 248.302C292.311 248.577 292.366 248.85 292.473 249.103C292.58 249.357 292.737 249.586 292.934 249.778C293.132 249.97 293.366 250.121 293.622 250.221C293.879 250.321 294.153 250.369 294.428 250.362Z" fill="url(#paint18_linear_423:144)"/>
<path d="M295.451 250.362H349.776C350.313 250.348 350.824 250.125 351.199 249.74C351.575 249.355 351.785 248.84 351.785 248.302C351.785 247.765 351.575 247.249 351.199 246.865C350.824 246.48 350.313 246.257 349.776 246.243H295.451C294.913 246.257 294.402 246.48 294.027 246.865C293.652 247.249 293.442 247.765 293.442 248.302C293.442 248.84 293.652 249.355 294.027 249.74C294.402 250.125 294.913 250.348 295.451 250.362Z" fill="url(#paint19_linear_423:144)"/>
<path d="M294.428 284.686H350.803C351.08 284.696 351.356 284.651 351.615 284.552C351.874 284.453 352.111 284.303 352.311 284.111C352.51 283.919 352.669 283.688 352.778 283.433C352.886 283.178 352.942 282.904 352.942 282.627C352.942 282.35 352.886 282.076 352.778 281.821C352.669 281.566 352.51 281.336 352.311 281.143C352.111 280.951 351.874 280.801 351.615 280.702C351.356 280.603 351.08 280.558 350.803 280.568H294.428C294.151 280.558 293.874 280.603 293.615 280.702C293.356 280.801 293.12 280.951 292.92 281.143C292.72 281.336 292.561 281.566 292.453 281.821C292.344 282.076 292.289 282.35 292.289 282.627C292.289 282.904 292.344 283.178 292.453 283.433C292.561 283.688 292.72 283.919 292.92 284.111C293.12 284.303 293.356 284.453 293.615 284.552C293.874 284.651 294.151 284.696 294.428 284.686Z" fill="url(#paint20_linear_423:144)"/>
<path d="M289.31 284.686H357.651C357.928 284.696 358.205 284.651 358.464 284.552C358.723 284.453 358.959 284.303 359.159 284.111C359.359 283.919 359.517 283.688 359.626 283.433C359.734 283.178 359.79 282.904 359.79 282.627C359.79 282.35 359.734 282.076 359.626 281.821C359.517 281.566 359.359 281.336 359.159 281.143C358.959 280.951 358.723 280.801 358.464 280.702C358.205 280.603 357.928 280.558 357.651 280.568H289.31C289.033 280.558 288.757 280.603 288.498 280.702C288.238 280.801 288.002 280.951 287.802 281.143C287.603 281.336 287.444 281.566 287.335 281.821C287.227 282.076 287.171 282.35 287.171 282.627C287.171 282.904 287.227 283.178 287.335 283.433C287.444 283.688 287.603 283.919 287.802 284.111C288.002 284.303 288.238 284.453 288.498 284.552C288.757 284.651 289.033 284.696 289.31 284.686Z" fill="url(#paint21_linear_423:144)"/>
<path d="M294.428 319.019H350.803C351.078 319.026 351.352 318.978 351.609 318.878C351.865 318.777 352.099 318.627 352.296 318.435C352.494 318.243 352.651 318.013 352.758 317.76C352.865 317.506 352.92 317.234 352.92 316.959C352.92 316.684 352.865 316.411 352.758 316.158C352.651 315.904 352.494 315.675 352.296 315.483C352.099 315.291 351.865 315.14 351.609 315.04C351.352 314.94 351.078 314.892 350.803 314.899H294.428C294.153 314.892 293.879 314.94 293.622 315.04C293.366 315.14 293.132 315.291 292.934 315.483C292.737 315.675 292.58 315.904 292.473 316.158C292.366 316.411 292.311 316.684 292.311 316.959C292.311 317.234 292.366 317.506 292.473 317.76C292.58 318.013 292.737 318.243 292.934 318.435C293.132 318.627 293.366 318.777 293.622 318.878C293.879 318.978 294.153 319.026 294.428 319.019Z" fill="url(#paint22_linear_423:144)"/>
<path d="M282.783 319.019H364.59C364.866 319.026 365.14 318.978 365.396 318.878C365.653 318.777 365.886 318.627 366.084 318.435C366.281 318.243 366.438 318.013 366.545 317.76C366.652 317.506 366.707 317.234 366.707 316.959C366.707 316.684 366.652 316.411 366.545 316.158C366.438 315.904 366.281 315.675 366.084 315.483C365.886 315.291 365.653 315.14 365.396 315.04C365.14 314.94 364.866 314.892 364.59 314.899H282.783C282.507 314.892 282.234 314.94 281.977 315.04C281.721 315.14 281.487 315.291 281.289 315.483C281.092 315.675 280.935 315.904 280.828 316.158C280.721 316.411 280.666 316.684 280.666 316.959C280.666 317.234 280.721 317.506 280.828 317.76C280.935 318.013 281.092 318.243 281.289 318.435C281.487 318.627 281.721 318.777 281.977 318.878C282.234 318.978 282.507 319.026 282.783 319.019Z" fill="url(#paint23_linear_423:144)"/>
<path d="M294.428 353.336H371.163C371.44 353.346 371.716 353.3 371.975 353.202C372.234 353.103 372.471 352.953 372.671 352.76C372.87 352.568 373.029 352.338 373.138 352.083C373.246 351.828 373.302 351.554 373.302 351.277C373.302 351 373.246 350.726 373.138 350.471C373.029 350.216 372.87 349.985 372.671 349.793C372.471 349.601 372.234 349.451 371.975 349.352C371.716 349.253 371.44 349.207 371.163 349.218H294.428C294.151 349.207 293.874 349.253 293.615 349.352C293.356 349.451 293.12 349.601 292.92 349.793C292.72 349.985 292.561 350.216 292.453 350.471C292.344 350.726 292.289 351 292.289 351.277C292.289 351.554 292.344 351.828 292.453 352.083C292.561 352.338 292.72 352.568 292.92 352.76C293.12 352.953 293.356 353.103 293.615 353.202C293.874 353.3 294.151 353.346 294.428 353.336Z" fill="url(#paint24_linear_423:144)"/>
<path d="M277.502 353.336H371.163C371.44 353.346 371.716 353.3 371.975 353.202C372.235 353.103 372.471 352.953 372.671 352.76C372.87 352.568 373.029 352.338 373.138 352.083C373.246 351.828 373.302 351.554 373.302 351.277C373.302 351 373.246 350.726 373.138 350.471C373.029 350.216 372.87 349.985 372.671 349.793C372.471 349.601 372.235 349.451 371.975 349.352C371.716 349.253 371.44 349.207 371.163 349.218H277.502C277.225 349.207 276.949 349.253 276.69 349.352C276.431 349.451 276.194 349.601 275.995 349.793C275.795 349.985 275.636 350.216 275.528 350.471C275.419 350.726 275.363 351 275.363 351.277C275.363 351.554 275.419 351.828 275.528 352.083C275.636 352.338 275.795 352.568 275.995 352.76C276.194 352.953 276.431 353.103 276.69 353.202C276.949 353.3 277.225 353.346 277.502 353.336Z" fill="url(#paint25_linear_423:144)"/>
<path d="M254.019 59.1543C254.026 58.9899 254.087 58.8326 254.194 58.7075C254.301 58.5824 254.447 58.4967 254.609 58.4642C254.77 58.4317 254.938 58.4542 255.085 58.5281C255.232 58.6021 255.35 58.7232 255.42 58.872L258.481 65.4092C259.072 66.6699 259.262 68.0818 259.025 69.4539L257.951 73.2545C257.79 74.17 257.827 75.1091 258.058 76.0095C258.289 76.9098 258.709 77.7507 259.29 78.4763C262.103 81.9905 268.097 88.409 276.628 91.95C275.215 94.877 273.024 98.6367 269.86 102.039C263.66 97.2649 258.359 90.8054 255.449 82.0568C254.773 81.8479 254.185 81.422 253.776 80.8453C253.367 80.2686 253.161 79.5733 253.188 78.8673L254.019 59.1543Z" fill="#FAEAC2"/>
<path d="M212.365 120.18C214.987 115.56 218.941 106.107 213.508 97.807C206.417 86.9753 178.122 103.208 192.214 119.916C193.251 121.146 192.355 123.021 190.75 123.021H161.548V91.6114C161.549 91.0013 161.394 90.401 161.099 89.8668C160.805 89.3325 160.379 88.8817 159.862 88.5564C159.345 88.2312 158.754 88.0421 158.145 88.007C157.535 87.9718 156.926 88.0918 156.375 88.3555C152.996 89.9658 148.333 91.8104 143.517 92.4977C134.214 93.8243 128.689 83.2057 129.9 74.3555C131.111 65.5053 141.745 60.196 147.06 61.0893C149.528 61.5 152.809 63.655 155.617 65.8468C157.995 67.7026 161.465 66.0246 161.465 63.0101V32.3201H189.678C190.199 32.3202 190.71 32.1748 191.152 31.9003C191.595 31.6257 191.952 31.233 192.183 30.7664C192.414 30.2998 192.509 29.7781 192.459 29.26C192.408 28.742 192.214 28.2484 191.897 27.835C185.997 20.094 188.598 10.4761 196.675 7.54199C206.424 4.00247 215.28 6.65711 216.608 16.834C217.936 27.0108 210.532 32.3201 210.532 32.3201H241.475L240.36 63.1385C240.254 66.0726 243.497 67.8875 245.958 66.2815C249.102 64.2294 253.257 62.1421 257.797 61.524C267.546 60.196 276.402 68.1571 276.402 76.5684C276.402 84.9797 268.871 95.1523 256.904 92.9394C252.561 92.1364 249.445 91.1753 247.237 90.2763C244.867 89.3124 242.292 91.0737 242.292 93.6281V123.028H214.018C213.684 123.029 213.356 122.941 213.066 122.775C212.777 122.609 212.536 122.369 212.369 122.081C212.201 121.792 212.113 121.465 212.112 121.131C212.111 120.797 212.199 120.469 212.365 120.18Z" fill="url(#paint26_linear_423:144)"/>
<path d="M242.301 123.964H214.018C213.52 123.964 213.031 123.834 212.599 123.586C212.167 123.339 211.809 122.982 211.559 122.552C211.309 122.122 211.176 121.634 211.174 121.137C211.173 120.639 211.302 120.15 211.549 119.719C214.181 115.08 217.835 106.132 212.722 98.3193C211.228 96.0372 208.483 94.9675 205.007 95.2991C198.791 95.8961 192.407 100.493 190.162 105.99C188.353 110.415 189.314 115.022 192.93 119.312C193.277 119.726 193.499 120.23 193.569 120.766C193.64 121.301 193.555 121.846 193.326 122.335C193.097 122.824 192.733 123.238 192.277 123.528C191.82 123.817 191.29 123.971 190.75 123.97H161.548C161.425 123.97 161.303 123.946 161.189 123.899C161.075 123.852 160.972 123.783 160.884 123.696C160.797 123.609 160.728 123.506 160.681 123.392C160.634 123.279 160.61 123.157 160.61 123.034V91.6114C160.61 91.1596 160.496 90.7151 160.278 90.3194C160.06 89.9236 159.745 89.5896 159.362 89.3486C158.98 89.1077 158.542 88.9676 158.091 88.9415C157.639 88.9154 157.188 89.0042 156.781 89.1995C153.582 90.7279 148.707 92.7023 143.649 93.4249C139.984 93.9457 136.613 92.7997 133.9 90.1084C130.158 86.3939 128.178 80.0134 128.969 74.2299C129.507 70.2952 131.879 66.6089 135.648 63.8301C139.358 61.0992 144.008 59.6287 147.211 60.1607C149.443 60.5319 152.464 62.1958 156.19 65.1003C156.585 65.4085 157.058 65.6003 157.557 65.6537C158.055 65.7072 158.558 65.6202 159.01 65.4027C159.461 65.1852 159.842 64.8458 160.111 64.423C160.379 64.0001 160.523 63.5107 160.528 63.0101V32.3215C160.527 32.1985 160.551 32.0767 160.598 31.963C160.645 31.8494 160.714 31.746 160.801 31.659C160.888 31.572 160.992 31.5029 161.106 31.4558C161.219 31.4087 161.341 31.3844 161.464 31.3844H189.677C190.024 31.3844 190.363 31.2876 190.657 31.1049C190.951 30.9223 191.189 30.6611 191.342 30.3508C191.495 30.0406 191.559 29.6937 191.525 29.3494C191.491 29.0051 191.362 28.677 191.151 28.4024C188.043 24.3237 186.998 19.4788 188.284 15.108C189.439 11.1846 192.382 8.10657 196.353 6.66281C202.351 4.48378 207.828 4.60233 211.771 6.99729C214.967 8.93782 216.961 12.2967 217.537 16.714C218.498 24.0725 215.175 28.9923 212.941 31.3915H241.482C241.608 31.3914 241.732 31.4167 241.848 31.4658C241.964 31.515 242.069 31.5869 242.156 31.6774C242.244 31.7679 242.312 31.8751 242.357 31.9926C242.402 32.11 242.423 32.2354 242.418 32.3611L241.302 63.1724C241.284 63.6632 241.402 64.1494 241.642 64.5777C241.883 65.006 242.237 65.3597 242.666 65.6C243.095 65.8402 243.581 65.9577 244.073 65.9395C244.564 65.9213 245.041 65.7681 245.451 65.4968C249.607 62.7843 253.72 61.1359 257.675 60.5968C262.63 59.9222 267.718 61.4958 271.639 64.9154C275.264 68.0767 277.344 72.3247 277.344 76.5684C277.344 81.6957 274.801 86.988 270.722 90.3822C267.999 92.6402 263.365 95.0846 256.745 93.861C252.884 93.1455 249.571 92.2324 246.896 91.1429C246.495 90.9768 246.059 90.9133 245.627 90.9581C245.195 91.003 244.782 91.1548 244.423 91.3997C244.055 91.6439 243.753 91.9764 243.546 92.3669C243.339 92.7574 243.233 93.1934 243.238 93.6352V123.035C243.236 123.282 243.137 123.518 242.961 123.692C242.786 123.866 242.548 123.964 242.301 123.964ZM206.242 93.3656C209.789 93.3656 212.615 94.7346 214.296 97.2947C216.723 101.005 219.806 108.97 213.184 120.642C213.097 120.789 213.051 120.957 213.051 121.128C213.051 121.299 213.097 121.467 213.184 121.614C213.268 121.761 213.389 121.883 213.536 121.967C213.683 122.051 213.85 122.095 214.019 122.093H241.364V93.6352C241.363 92.8917 241.544 92.1591 241.892 91.5019C242.24 90.8448 242.745 90.2831 243.362 89.8665C243.978 89.4498 244.688 89.1909 245.428 89.1125C246.168 89.0341 246.916 89.1386 247.607 89.4168C250.164 90.457 253.354 91.3348 257.092 92.0263C262.993 93.1158 267.112 90.9566 269.525 88.9497C273.138 85.9493 275.473 81.0916 275.473 76.5755C275.473 72.8722 273.627 69.1394 270.408 66.3323C266.896 63.2698 262.355 61.8571 257.932 62.4583C254.259 62.9593 250.4 64.5117 246.479 67.0718C245.782 67.5309 244.971 67.7893 244.136 67.8185C243.301 67.8478 242.475 67.6469 241.747 67.2378C241.019 66.8287 240.418 66.2273 240.009 65.4995C239.601 64.7716 239.401 63.9455 239.432 63.1117L240.512 33.2643H210.538C210.34 33.2637 210.147 33.2007 209.988 33.0842C209.828 32.9677 209.709 32.8038 209.649 32.6158C209.588 32.4278 209.588 32.2255 209.65 32.0378C209.711 31.8501 209.831 31.6866 209.991 31.5707C210.273 31.3661 216.914 26.4364 215.679 16.9653C215.17 13.0771 213.529 10.2644 210.798 8.60758C207.35 6.51322 202.447 6.45112 196.993 8.43258C193.585 9.67028 191.059 12.2995 190.083 15.6457C188.967 19.4393 189.901 23.6788 192.643 27.279C193.065 27.8314 193.324 28.4906 193.391 29.1823C193.457 29.8739 193.329 30.5704 193.021 31.1932C192.712 31.8159 192.235 32.3401 191.644 32.7066C191.053 33.0731 190.372 33.2672 189.676 33.2671H162.407V63.0101C162.407 63.8629 162.167 64.6985 161.714 65.4214C161.261 66.1443 160.614 66.7254 159.846 67.0981C159.078 67.4709 158.221 67.6203 157.372 67.5293C156.523 67.4383 155.717 67.1105 155.045 66.5835C151.616 63.9021 148.805 62.3271 146.911 62.0123C144.217 61.5664 140.045 62.9339 136.768 65.3444C133.411 67.8142 131.304 71.0616 130.834 74.4896C130.119 79.7198 131.884 85.4666 135.229 88.7874C137.508 91.0455 140.331 92.0108 143.389 91.5775C148.213 90.8888 152.896 88.9892 155.977 87.5187C156.67 87.187 157.435 87.0361 158.203 87.0801C158.97 87.1241 159.713 87.3615 160.364 87.7702C161.014 88.1789 161.55 88.7456 161.922 89.4173C162.294 90.089 162.489 90.8438 162.49 91.6114V122.095H190.75C190.935 122.096 191.117 122.044 191.272 121.943C191.428 121.843 191.552 121.7 191.627 121.531C191.706 121.368 191.735 121.185 191.712 121.005C191.688 120.826 191.613 120.657 191.496 120.519C186.32 114.383 186.974 108.846 188.427 105.277C190.916 99.183 197.967 94.0896 204.828 93.432C205.313 93.3887 205.785 93.3666 206.242 93.3656Z" fill="white"/>
<path d="M291.602 94.3408C315.603 92.3508 321.875 97.3115 321.875 97.3115L310.343 115.51C310.343 115.51 286.76 115.044 269.86 102.035C273.024 98.6325 275.22 94.8728 276.628 91.9458C280.987 93.748 286.004 94.8093 291.602 94.3408Z" fill="url(#paint27_linear_423:144)"/>
<path d="M350.287 269.299C350.287 269.299 352.025 272.035 352.463 279.697C352.473 279.866 352.449 280.036 352.391 280.196C352.333 280.355 352.243 280.501 352.127 280.625C352.011 280.748 351.87 280.847 351.715 280.915C351.559 280.982 351.391 281.017 351.221 281.018H337.629C337.502 281.018 337.377 280.988 337.264 280.931C337.151 280.873 337.053 280.789 336.978 280.687C336.904 280.584 336.855 280.465 336.836 280.339C336.817 280.214 336.828 280.086 336.868 279.965C337.665 277.611 340.072 271.87 345.445 268.589L350.287 269.299Z" fill="url(#paint28_linear_423:144)"/>
<path d="M350.878 264.108L350.109 270.546C350.078 270.817 349.957 271.069 349.765 271.262C349.573 271.456 349.321 271.579 349.051 271.612C348.096 271.731 347.129 271.722 346.177 271.584C345.714 271.502 345.294 271.258 344.994 270.896C344.693 270.534 344.531 270.078 344.535 269.608V263.398L350.878 264.108Z" fill="url(#paint29_linear_423:144)"/>
<path d="M316.658 268.589C316.658 268.589 319.26 272.629 319.202 278.173C319.188 278.802 318.927 279.401 318.475 279.839C318.023 280.278 317.417 280.522 316.787 280.519H295.68C295.465 280.519 295.256 280.45 295.083 280.323C294.909 280.197 294.781 280.018 294.716 279.814C294.652 279.609 294.654 279.389 294.723 279.186C294.791 278.983 294.923 278.807 295.099 278.684C299.093 275.882 306.945 270.648 312.619 268.59L316.658 268.589Z" fill="url(#paint30_linear_423:144)"/>
<path d="M318.833 261.636L317.193 269.588C317.151 269.801 317.067 270.003 316.947 270.183C316.826 270.363 316.671 270.517 316.491 270.637C316.31 270.757 316.108 270.84 315.895 270.881C315.682 270.923 315.464 270.922 315.251 270.878C314.593 270.727 313.965 270.464 313.395 270.102C313.078 269.902 312.829 269.613 312.678 269.271C312.527 268.929 312.481 268.549 312.547 268.181L314.242 258.548L318.833 261.636Z" fill="url(#paint31_linear_423:144)"/>
<path d="M347.867 151.075C347.867 151.075 353.568 156.096 354.64 162.136C355.713 168.177 351.601 266.358 351.601 266.358C351.601 266.358 345.9 267.305 342.96 265.526C342.96 265.526 339.474 201.808 336.825 187.084C336.825 187.084 322.93 253.089 319.08 265.014C319.08 265.014 313.587 265.682 311.816 264.637C311.816 264.637 315.456 179.078 320.03 163.871L347.867 151.075Z" fill="url(#paint32_linear_423:144)"/>
<path d="M336.992 184.999C337.126 184.999 337.256 184.955 337.362 184.873C337.467 184.792 337.543 184.677 337.577 184.548L339.939 175.496L344.972 172.271C345.042 172.23 345.103 172.175 345.151 172.109C345.199 172.044 345.233 171.969 345.252 171.891C345.271 171.812 345.273 171.73 345.26 171.65C345.246 171.57 345.216 171.494 345.172 171.425C345.129 171.357 345.071 171.298 345.004 171.253C344.937 171.207 344.862 171.175 344.782 171.159C344.702 171.143 344.62 171.144 344.541 171.16C344.461 171.176 344.386 171.209 344.319 171.255L339.092 174.607C338.964 174.689 338.872 174.816 338.833 174.962L336.406 184.24C336.385 184.317 336.381 184.397 336.391 184.475C336.402 184.554 336.428 184.63 336.469 184.698C336.509 184.767 336.562 184.826 336.625 184.874C336.689 184.922 336.761 184.957 336.838 184.977C336.888 184.991 336.94 184.999 336.992 184.999Z" fill="#666694"/>
<path d="M283.703 104.89C292.152 95.7957 308.246 91.6874 317.564 89.9995C319.54 89.6373 321.58 89.9813 323.326 90.9712C325.073 91.9611 326.415 93.5337 327.117 95.4133C331.309 106.673 342.714 135.965 344.92 140.998C346.733 145.128 348.626 149.162 349.83 151.684C350.176 152.407 350.222 153.237 349.957 153.993C349.693 154.749 349.139 155.369 348.417 155.718C340.577 159.493 326.47 163.762 320.752 165.429C320.459 165.514 320.151 165.53 319.851 165.476C319.551 165.421 319.268 165.297 319.024 165.114C318.78 164.931 318.582 164.694 318.447 164.421C318.311 164.149 318.24 163.848 318.241 163.543C318.241 162.433 317.939 161.344 317.367 160.392L295.708 124.341C282.208 139.292 270.386 140.659 261.304 137.387C262.806 132.783 263.813 128.033 264.309 123.217C277.73 120.922 283.703 104.89 283.703 104.89Z" fill="url(#paint33_linear_423:144)"/>
<path d="M242.138 120.709L244.552 117.486C252.391 122.865 258.944 124.139 264.308 123.22C263.812 128.036 262.805 132.786 261.302 137.39C249.344 133.077 242.138 120.709 242.138 120.709Z" fill="url(#paint34_linear_423:144)"/>
<path d="M243.846 120.769L230.204 121.299L217.645 114.292C219.448 113.163 229.643 115.471 229.643 115.471C229.643 115.471 240.301 113.86 243.185 113.857C245.587 113.857 245.239 117.295 245.054 118.461C245.016 118.7 244.985 118.842 244.985 118.842L243.846 120.769Z" fill="#FAEAC2"/>
<path d="M304.742 73.2969L311.948 90.8407C311.948 90.8407 303.679 96.5578 297.025 96.0145L293.432 80.239L304.742 73.2969Z" fill="#FAEAC2"/>
<path d="M292.591 61.3376C292.426 61.5719 287.383 79.7648 287.383 79.7648L297.839 82.4195L305.186 65.8848C305.186 65.8848 295.349 57.4325 292.591 61.3376Z" fill="#FAEAC2"/>
<path d="M301.248 68.3969L298.065 77.4052C298.024 77.5201 297.968 77.6289 297.898 77.7284C297.474 78.3409 295.825 80.3421 293.878 78.5399C292.112 76.9042 290.476 75.4351 288.964 75.1726C288.637 75.1145 288.3 75.1805 288.019 75.3574C287.738 75.5344 287.534 75.8097 287.445 76.1294C286.987 77.7835 286.032 81.5276 285.686 84.9077C285.655 85.2389 285.749 85.5698 285.949 85.8354C286.15 86.101 286.442 86.2821 286.77 86.343C288.813 86.7297 293.145 87.4268 296.762 87.1728C297.003 87.1573 297.235 87.0772 297.434 86.9408C297.633 86.8044 297.791 86.6169 297.892 86.398C298.881 84.2218 301.943 77.6212 303.078 75.9135C304.144 74.3103 306.751 74.3611 307.853 74.4528C308.031 74.4697 308.211 74.4498 308.381 74.3944C308.551 74.3391 308.708 74.2494 308.842 74.131C309.8 73.2913 311.626 71.149 309.058 68.5832C308.931 68.4565 308.831 68.3054 308.763 68.139C308.695 67.9727 308.662 67.7944 308.665 67.6148C308.668 67.4353 308.707 67.2582 308.78 67.0941C308.853 66.9299 308.958 66.7822 309.09 66.6596C310.192 65.6237 311.371 63.7877 309.535 61.5098C307.667 59.1953 305.203 59.5636 303.694 60.1141C303.398 60.2192 303.075 60.2175 302.781 60.1091C302.487 60.0008 302.241 59.7928 302.084 59.5213C301.896 59.2038 301.566 58.9568 300.995 59.0118C300.812 59.0241 300.629 58.998 300.456 58.9354C300.284 58.8727 300.127 58.7748 299.995 58.6479C299.862 58.5211 299.758 58.368 299.689 58.1986C299.619 58.0292 299.586 57.8471 299.591 57.664C299.617 56.1808 299.086 54.308 296.51 53.5064C291.941 52.0866 289.091 56.4969 288.809 59.7866C288.526 63.0764 293.569 64.3366 296.534 64.1151C298.795 63.9457 300.462 66.1784 301.135 67.258C301.238 67.4272 301.302 67.6175 301.321 67.8146C301.341 68.0118 301.316 68.2108 301.248 68.3969Z" fill="url(#paint35_linear_423:144)"/>
<path d="M301.883 79.1806C301.883 79.1806 302.62 73.4677 305 73.1869C307.379 72.906 309.695 74.8607 307.33 78.0671C304.388 82.0625 301.883 79.1806 301.883 79.1806Z" fill="#FAEAC2"/>
</g>
<defs>
<linearGradient id="paint0_linear_423:144" x1="124.7" y1="40.5415" x2="124.7" y2="357.558" gradientUnits="userSpaceOnUse">
<stop stop-color="#381181"/>
<stop offset="1" stop-color="#5018B4" stop-opacity="0.69"/>
</linearGradient>
<linearGradient id="paint1_linear_423:144" x1="116.911" y1="21.5038" x2="9.26788" y2="211.855" gradientUnits="userSpaceOnUse">
<stop stop-color="white"/>
<stop offset="1" stop-color="white"/>
</linearGradient>
<linearGradient id="paint2_linear_423:144" x1="8096.08" y1="9209.43" x2="-20744.6" y2="20508.8" gradientUnits="userSpaceOnUse">
<stop stop-color="#3B1186"/>
<stop offset="1" stop-color="#1A0F91"/>
</linearGradient>
<linearGradient id="paint3_linear_423:144" x1="27532.5" y1="55966.1" x2="22895.7" y2="79862.7" gradientUnits="userSpaceOnUse">
<stop stop-color="#381080"/>
<stop offset="1" stop-color="#E8E6FF"/>
</linearGradient>
<linearGradient id="paint4_linear_423:144" x1="70" y1="47" x2="115" y2="44" gradientUnits="userSpaceOnUse">
<stop stop-color="#5018B4"/>
<stop offset="1" stop-color="#3F1391"/>
</linearGradient>
<linearGradient id="paint5_linear_423:144" x1="114.816" y1="188.882" x2="67.0602" y2="233.938" gradientUnits="userSpaceOnUse">
<stop stop-color="#FAEAC2"/>
<stop offset="1" stop-color="#FAEAC2"/>
</linearGradient>
<linearGradient id="paint6_linear_423:144" x1="76" y1="159" x2="139.178" y2="247.03" gradientUnits="userSpaceOnUse">
<stop stop-color="#6CE5E7"/>
<stop offset="1" stop-color="#D0C5E1"/>
</linearGradient>
<linearGradient id="paint7_linear_423:144" x1="76" y1="203" x2="55.9208" y2="230.798" gradientUnits="userSpaceOnUse">
<stop stop-color="#09005D"/>
<stop offset="1" stop-color="#5B9CCB"/>
</linearGradient>
<linearGradient id="paint8_linear_423:144" x1="-9669.51" y1="29799.4" x2="-10712.7" y2="29799.4" gradientUnits="userSpaceOnUse">
<stop stop-color="#09005D"/>
<stop offset="1" stop-color="#1A0F91"/>
</linearGradient>
<linearGradient id="paint9_linear_423:144" x1="-7964.07" y1="43304.3" x2="-10696" y2="43304.3" gradientUnits="userSpaceOnUse">
<stop stop-color="#09005D"/>
<stop offset="1" stop-color="#1A0F91"/>
</linearGradient>
<linearGradient id="paint10_linear_423:144" x1="-26088.8" y1="230054" x2="-42138.4" y2="129856" gradientUnits="userSpaceOnUse">
<stop offset="1" stop-color="#FAEAC2"/>
</linearGradient>
<linearGradient id="paint11_linear_423:144" x1="75.6032" y1="206.599" x2="75.6032" y2="257.46" gradientUnits="userSpaceOnUse">
<stop stop-color="#2CD8DC"/>
<stop offset="1" stop-color="#5018B4"/>
</linearGradient>
<linearGradient id="paint12_linear_423:144" x1="62.6595" y1="254.24" x2="62.6595" y2="323.022" gradientUnits="userSpaceOnUse">
<stop stop-color="#1A0F91"/>
<stop offset="1" stop-color="#4956B0"/>
</linearGradient>
<linearGradient id="paint13_linear_423:144" x1="4771.58" y1="34544.1" x2="-4846.31" y2="36699" gradientUnits="userSpaceOnUse">
<stop stop-color="#FAE2A5"/>
<stop offset="1" stop-color="#FF928E"/>
</linearGradient>
<linearGradient id="paint14_linear_423:144" x1="-7243.52" y1="34459.8" x2="-11820.2" y2="27055.9" gradientUnits="userSpaceOnUse">
<stop stop-color="#FAEAC2"/>
<stop offset="1" stop-color="#FAEAC2"/>
</linearGradient>
<linearGradient id="paint15_linear_423:144" x1="-8434.96" y1="34619.7" x2="-11716.2" y2="40844" gradientUnits="userSpaceOnUse">
<stop stop-color="#09005D"/>
<stop offset="1" stop-color="#1A0F91"/>
</linearGradient>
<linearGradient id="paint16_linear_423:144" x1="75247.4" y1="357101" x2="153789" y2="338449" gradientUnits="userSpaceOnUse">
<stop stop-color="#4023AD"/>
<stop offset="1" stop-color="#4042E2"/>
</linearGradient>
<linearGradient id="paint17_linear_423:144" x1="101288" y1="403147" x2="190472" y2="378297" gradientUnits="userSpaceOnUse">
<stop stop-color="#401392"/>
<stop offset="1" stop-color="#4042E2"/>
</linearGradient>
<linearGradient id="paint18_linear_423:144" x1="121489" y1="7781.34" x2="121895" y2="380.5" gradientUnits="userSpaceOnUse">
<stop stop-color="#4F52FF"/>
<stop offset="1" stop-color="#4042E2"/>
</linearGradient>
<linearGradient id="paint19_linear_423:144" x1="116959" y1="7778.51" x2="117381" y2="382.169" gradientUnits="userSpaceOnUse">
<stop stop-color="#401EA5"/>
<stop offset="1" stop-color="#4042E2"/>
</linearGradient>
<linearGradient id="paint20_linear_423:144" x1="128790" y1="8211.58" x2="129197" y2="810.88" gradientUnits="userSpaceOnUse">
<stop stop-color="#4F52FF"/>
<stop offset="1" stop-color="#4042E2"/>
</linearGradient>
<linearGradient id="paint21_linear_423:144" x1="154405" y1="8223.95" x2="154745" y2="816.443" gradientUnits="userSpaceOnUse">
<stop stop-color="#4023AD"/>
<stop offset="1" stop-color="#4042E2"/>
</linearGradient>
<linearGradient id="paint22_linear_423:144" x1="135902" y1="8641.77" x2="136309" y2="1241.16" gradientUnits="userSpaceOnUse">
<stop stop-color="#4F52FF"/>
<stop offset="1" stop-color="#4042E2"/>
</linearGradient>
<linearGradient id="paint23_linear_423:144" x1="193188" y1="8657.06" x2="193475" y2="1245.21" gradientUnits="userSpaceOnUse">
<stop stop-color="#401EA5"/>
<stop offset="1" stop-color="#4042E2"/>
</linearGradient>
<linearGradient id="paint24_linear_423:144" x1="194720" y1="9217.47" x2="195025" y2="1806.91" gradientUnits="userSpaceOnUse">
<stop stop-color="#4F52FF"/>
<stop offset="1" stop-color="#4042E2"/>
</linearGradient>
<linearGradient id="paint25_linear_423:144" x1="231775" y1="9096.76" x2="232027" y2="1682.25" gradientUnits="userSpaceOnUse">
<stop stop-color="#40199C"/>
<stop offset="1" stop-color="#4042E2"/>
</linearGradient>
<linearGradient id="paint26_linear_423:144" x1="244" y1="21" x2="203.069" y2="123.028" gradientUnits="userSpaceOnUse">
<stop stop-color="#6CE5E7"/>
<stop offset="1" stop-color="#D9CEEB"/>
</linearGradient>
<linearGradient id="paint27_linear_423:144" x1="91139.1" y1="15111.4" x2="92133.6" y2="27251.2" gradientUnits="userSpaceOnUse">
<stop stop-color="#2CD8DC"/>
<stop offset="1" stop-color="#4042E2"/>
</linearGradient>
<linearGradient id="paint28_linear_423:144" x1="34135.6" y1="26515.6" x2="32404.6" y2="26515.6" gradientUnits="userSpaceOnUse">
<stop stop-color="#09005D"/>
<stop offset="1" stop-color="#1A0F91"/>
</linearGradient>
<linearGradient id="paint29_linear_423:144" x1="13620.3" y1="17356.4" x2="13335.6" y2="17356.4" gradientUnits="userSpaceOnUse">
<stop stop-color="#FEBBBA"/>
<stop offset="1" stop-color="#FF928E"/>
</linearGradient>
<linearGradient id="paint30_linear_423:144" x1="47955.6" y1="25439.7" x2="43694.9" y2="25439.7" gradientUnits="userSpaceOnUse">
<stop stop-color="#09005D"/>
<stop offset="1" stop-color="#1A0F91"/>
</linearGradient>
<linearGradient id="paint31_linear_423:144" x1="12160.3" y1="25485.5" x2="11878.4" y2="25485.5" gradientUnits="userSpaceOnUse">
<stop stop-color="#FEBBBA"/>
<stop offset="1" stop-color="#FF928E"/>
</linearGradient>
<linearGradient id="paint32_linear_423:144" x1="95031.6" y1="190128" x2="81943.8" y2="190128" gradientUnits="userSpaceOnUse">
<stop stop-color="#5018B4"/>
<stop offset="1" stop-color="#1A0F91"/>
</linearGradient>
<linearGradient id="paint33_linear_423:144" x1="305.716" y1="89.8591" x2="305.716" y2="165.507" gradientUnits="userSpaceOnUse">
<stop stop-color="#6CE5E7"/>
<stop offset="1" stop-color="#433FA7"/>
</linearGradient>
<linearGradient id="paint34_linear_423:144" x1="28359.3" y1="15428.4" x2="35293.4" y2="25037.5" gradientUnits="userSpaceOnUse">
<stop stop-color="#FAEAC2"/>
</linearGradient>
<linearGradient id="paint35_linear_423:144" x1="-13773.4" y1="67268.8" x2="-17499.9" y2="64630" gradientUnits="userSpaceOnUse">
<stop stop-color="#09005D"/>
<stop offset="1" stop-color="#1A0F91"/>
</linearGradient>
<clipPath id="clip0_423:144">
<rect width="390" height="395" fill="white"/>
</clipPath>
</defs>
</svg>
