<svg width="1198" height="1295" viewBox="0 0 1198 1295" fill="none" xmlns="http://www.w3.org/2000/svg">
<line x1="1.31613" y1="631.27" x2="410.559" y2="247.677" stroke="#42B6B8" stroke-opacity="0.31" stroke-width="2"/>
<line y1="-1" x2="464.101" y2="-1" transform="matrix(-0.0576877 0.998335 -0.997553 -0.0699101 411.243 248.406)" stroke="#42B6B8" stroke-opacity="0.31" stroke-width="2"/>
<line x1="384.267" y1="712.713" x2="1.79591" y2="632.979" stroke="#42B6B8" stroke-opacity="0.31" stroke-width="2"/>
<line x1="2.6638" y1="631.252" x2="442.504" y2="1021.63" stroke="#42B6B8" stroke-opacity="0.31" stroke-width="2"/>
<line y1="-1" x2="650.3" y2="-1" transform="matrix(0.9822 0.187836 -0.155758 0.987795 166.462 1170.85)" stroke="#42B6B8" stroke-opacity="0.31" stroke-width="2"/>
<line x1="2.95644" y1="631.708" x2="167.418" y2="1170.56" stroke="#42B6B8" stroke-opacity="0.31" stroke-width="2"/>
<line y1="-1" x2="508.247" y2="-1" transform="matrix(0.428941 -0.903332 0.866569 0.499057 166.462 1170.85)" stroke="#42B6B8" stroke-opacity="0.31" stroke-width="2"/>
<line y1="-1" x2="453.269" y2="-1" transform="matrix(0.970374 -0.241609 0.2011 0.979571 384.47 711.734)" stroke="#42B6B8" stroke-opacity="0.31" stroke-width="2"/>
<line y1="-1" x2="543.884" y2="-1" transform="matrix(0.759478 0.650533 -0.576883 0.816827 411.243 248.406)" stroke="#42B6B8" stroke-opacity="0.31" stroke-width="2"/>
<line x1="99.5441" y1="247.597" x2="2.9699" y2="632.243" stroke="#42B6B8" stroke-opacity="0.31" stroke-width="2"/>
<line x1="411.243" y1="249.406" x2="98.5736" y2="249.406" stroke="#42B6B8" stroke-opacity="0.31" stroke-width="2"/>
<line x1="410.943" y1="247.452" x2="1197.7" y2="1.04573" stroke="#42B6B8" stroke-opacity="0.31" stroke-width="2"/>
<line y1="-1" x2="313.085" y2="-1" transform="matrix(0.616918 -0.787028 0.724754 0.689008 411.243 248.406)" stroke="#42B6B8" stroke-opacity="0.31" stroke-width="2"/>
<line y1="-1" x2="562.642" y2="-1" transform="matrix(0.899002 -0.437945 0.372721 0.927944 98.5735 248.406)" stroke="#42B6B8" stroke-opacity="0.31" stroke-width="2"/>
<line y1="-1" x2="264.655" y2="-1" transform="matrix(-0.364904 -0.931045 0.903159 -0.429307 98.5735 248.406)" stroke="#42B6B8" stroke-opacity="0.31" stroke-width="2"/>
<line x1="727.655" y1="149.244" x2="962.656" y2="352.953" stroke="#42B6B8" stroke-opacity="0.31" stroke-width="2"/>
<line y1="-1" x2="560.733" y2="-1" transform="matrix(0.982209 0.187793 -0.155722 0.987801 411.243 248.406)" stroke="#42B6B8" stroke-opacity="0.31" stroke-width="2"/>
<line y1="-1" x2="284.107" y2="-1" transform="matrix(-0.484639 0.874714 -0.830014 -0.557743 962 353.708)" stroke="#42B6B8" stroke-opacity="0.31" stroke-width="2"/>
<line y1="-1" x2="569.816" y2="-1" transform="matrix(0.986688 -0.162624 0.134658 0.990892 307.976 886.535)" stroke="#42B6B8" stroke-opacity="0.31" stroke-width="2"/>
<line y1="-1" x2="492.632" y2="-1" transform="matrix(0.986003 0.166728 -0.138087 0.99042 384.47 711.734)" stroke="#42B6B8" stroke-opacity="0.31" stroke-width="2"/>
<line y1="-1" x2="197.068" y2="-1" transform="matrix(0.232896 0.972502 -0.960314 0.278921 824.311 602.22)" stroke="#42B6B8" stroke-opacity="0.31" stroke-width="2"/>
<line y1="-1" x2="798.355" y2="-1" transform="matrix(0.881493 -0.472196 0.404025 0.914748 166.462 1170.85)" stroke="#42B6B8" stroke-opacity="0.31" stroke-width="2"/>
<line y1="-1" x2="429.376" y2="-1" transform="matrix(0.984287 -0.176575 0.146323 0.989237 166.462 1170.85)" stroke="#42B6B8" stroke-opacity="0.31" stroke-width="2"/>
<line y1="-1" x2="293.067" y2="-1" transform="matrix(-0.737359 -0.675502 0.602731 -0.797944 805.187 1293)" stroke="#42B6B8" stroke-opacity="0.31" stroke-width="2"/>
<line x1="166.608" y1="1168.79" x2="3.5651" y2="1293.79" stroke="#42B6B8" stroke-opacity="0.31" stroke-width="2"/>
<line y1="-1" x2="462.062" y2="-1" transform="matrix(-0.991226 0.132179 -0.109291 -0.99401 460.964 1231.92)" stroke="#42B6B8" stroke-opacity="0.31" stroke-width="2"/>
<line y1="-1" x2="596.406" y2="-1" transform="matrix(0.686182 -0.72743 0.658116 0.752917 460.964 1231.92)" stroke="#42B6B8" stroke-opacity="0.31" stroke-width="2"/>
<ellipse cx="413" cy="248" rx="28" ry="28" fill="white" fill-opacity="0.12"/>
<path d="M412.575 233C413.832 233.027 414.768 233.251 415.359 233.603C415.987 233.977 416.314 234.448 416.475 235.171C416.948 236.551 415.687 240.41 413.954 243.626H421.649C422.956 243.626 423.649 244.435 423.947 245.595C424.158 247.312 423.739 248.409 422.673 249.468C423.168 250.131 423.535 251.001 423.448 251.746C423.165 252.814 422.673 253.008 421.78 253.447C422.411 254.559 422.663 256.657 421.098 257.722C421.551 259.036 421.201 260.533 420.48 261.42C419.831 262.033 419.049 262.706 418.13 262.787C415.013 263.342 412.607 262.727 409.726 261.929C407.906 261.425 404.394 259.472 402 259.111V248L404.303 246.185C406.512 243.621 408.696 241.116 410.619 238.909C411.066 236.98 411.502 234.6 412.575 233Z" fill="#00B5B8" fill-opacity="0.63"/>
<circle cx="827.5" cy="592.5" r="52.5" fill="white" fill-opacity="0.12"/>
<path d="M827.151 564C829.665 564.051 831.537 564.476 832.719 565.146C833.974 565.857 834.628 566.751 834.951 568.124C835.896 570.746 833.375 578.078 829.908 584.189H845.298C847.911 584.189 849.298 585.727 849.894 587.931C850.316 591.193 849.477 593.277 847.346 595.289C848.337 596.548 849.069 598.202 848.896 599.617C848.33 601.647 847.345 602.015 845.561 602.85C846.822 604.963 847.326 608.948 844.195 610.971C845.102 613.468 844.402 616.313 842.961 617.998C841.662 619.162 840.098 620.442 838.26 620.595C832.026 621.649 827.213 620.482 821.452 618.965C817.813 618.007 810.788 614.297 806 613.611V592.5L810.606 589.051C815.023 584.179 819.392 579.421 823.238 575.227C824.131 571.561 825.005 567.04 827.151 564Z" fill="#00B5B8" fill-opacity="0.63"/>
<circle cx="388.5" cy="706.5" r="38.5" fill="white" fill-opacity="0.12"/>
<path d="M387.979 689C389.522 689.032 390.671 689.301 391.396 689.724C392.166 690.173 392.567 690.737 392.765 691.605C393.346 693.261 391.798 697.892 389.671 701.751H399.115C400.719 701.751 401.569 702.723 401.935 704.114C402.194 706.175 401.68 707.491 400.372 708.761C400.98 709.557 401.429 710.601 401.323 711.495C400.975 712.777 400.371 713.01 399.276 713.537C400.05 714.871 400.359 717.388 398.438 718.666C398.995 720.243 398.565 722.04 397.681 723.104C396.884 723.839 395.924 724.648 394.796 724.744C390.971 725.41 388.017 724.673 384.482 723.715C382.249 723.11 377.938 720.766 375 720.333V707L377.827 704.822C380.537 701.745 383.218 698.74 385.578 696.091C386.126 693.775 386.662 690.92 387.979 689Z" fill="#00B5B8" fill-opacity="0.63"/>
<circle cx="596.5" cy="1083.5" r="73.5" fill="white" fill-opacity="0.12"/>
<path d="M595.362 1044C598.733 1044.07 601.243 1044.66 602.828 1045.59C604.511 1046.57 605.388 1047.81 605.821 1049.72C607.089 1053.35 603.707 1063.51 599.059 1071.98H619.695C623.2 1071.98 625.059 1074.11 625.858 1077.17C626.424 1081.69 625.299 1084.58 622.442 1087.37C623.77 1089.11 624.752 1091.4 624.52 1093.36C623.761 1096.18 622.441 1096.69 620.048 1097.84C621.739 1100.77 622.415 1106.3 618.217 1109.1C619.432 1112.56 618.494 1116.5 616.562 1118.84C614.82 1120.45 612.723 1122.23 610.258 1122.44C601.899 1123.9 595.445 1122.28 587.721 1120.18C582.84 1118.85 573.421 1113.71 567 1112.76V1083.5L573.177 1078.72C579.099 1071.97 584.958 1065.37 590.115 1059.56C591.313 1054.48 592.484 1048.21 595.362 1044Z" fill="#00B5B8" fill-opacity="0.63"/>
<circle cx="172" cy="1156" r="37" fill="white" fill-opacity="0.12"/>
<path d="M170.902 1135C172.673 1135.04 173.992 1135.34 174.825 1135.82C175.709 1136.34 176.17 1136.98 176.397 1137.97C177.063 1139.85 175.287 1145.13 172.844 1149.52H183.687C185.528 1149.52 186.505 1150.63 186.925 1152.21C187.223 1154.56 186.632 1156.06 185.13 1157.51C185.828 1158.41 186.344 1159.6 186.222 1160.62C185.823 1162.08 185.13 1162.34 183.873 1162.94C184.761 1164.46 185.116 1167.33 182.911 1168.79C183.549 1170.58 183.056 1172.63 182.041 1173.84C181.126 1174.68 180.024 1175.6 178.729 1175.71C174.337 1176.47 170.946 1175.63 166.887 1174.54C164.323 1173.85 159.373 1171.18 156 1170.69V1155.5L159.245 1153.02C162.357 1149.51 165.435 1146.09 168.145 1143.08C168.774 1140.44 169.39 1137.19 170.902 1135Z" fill="#00B5B8" fill-opacity="0.63"/>
<circle cx="111" cy="236" r="55" fill="white" fill-opacity="0.12"/>
<path d="M109.632 205C112.203 205.054 114.117 205.509 115.326 206.226C116.61 206.987 117.279 207.944 117.609 209.414C118.576 212.219 115.997 220.066 112.452 226.605H128.191C130.864 226.605 132.282 228.252 132.891 230.61C133.323 234.101 132.466 236.332 130.286 238.485C131.299 239.832 132.048 241.602 131.871 243.117C131.292 245.289 130.285 245.683 128.46 246.576C129.75 248.838 130.265 253.102 127.064 255.268C127.991 257.94 127.275 260.984 125.801 262.787C124.473 264.033 122.874 265.403 120.993 265.566C114.618 266.695 109.696 265.446 103.804 263.822C100.081 262.797 92.8969 258.826 87.9998 258.093V235.5L92.711 231.809C97.2284 226.595 101.697 221.503 105.63 217.015C106.543 213.092 107.437 208.253 109.632 205Z" fill="#00B5B8" fill-opacity="0.63"/>
</svg>
