<svg width="88" height="88" viewBox="0 0 88 88"  fill="none"  xmlns="http://www.w3.org/2000/svg">
<g filter="url(#filter0_d_324:899)">
<g filter="url(#filter1_bd_324:899)">
<path d="M44 63C55.0457 63 64 54.0457 64 43C64 31.9543 55.0457 23 44 23C32.9543 23 24 31.9543 24 43C24 54.0457 32.9543 63 44 63Z" fill="url(#paint0_linear_324:899)" fill-opacity="0.6" shape-rendering="crispEdges"/>
</g>
<rect x="0" y="0" width="300" height="100" stroke="transparent" stroke-width="0" fill="none" fill-opacity="0" />
<path d="M44.625 43.0391C46.8902 43.0391 48.7266 41.0716 48.7266 38.6445C48.7266 36.2175 46.8902 34.25 44.625 34.25C42.3598 34.25 40.5234 36.2175 40.5234 38.6445C40.5234 41.0716 42.3598 43.0391 44.625 43.0391Z" fill="white"/>
<path d="M47.5495 43.625H46.6298C46.5579 43.626 46.4876 43.6464 46.4262 43.684C46.3649 43.7216 46.3148 43.775 46.2812 43.8386L45.8453 44.6231L44.6337 46.8502L43.422 44.6231L42.9862 43.8386C42.9526 43.775 42.9025 43.7216 42.8411 43.684C42.7798 43.6464 42.7095 43.626 42.6375 43.625H41.7179C38.1484 43.625 35.25 46.7021 35.25 50.4939V52.1632C35.25 52.3851 35.3382 52.598 35.4951 52.7549C35.652 52.9118 35.8649 53 36.0868 53H53.1631C53.385 53 53.5979 52.9118 53.7548 52.7549C53.9118 52.598 53.9999 52.3851 53.9999 52.1632V50.4939C54.0174 46.7021 51.119 43.625 47.5495 43.625Z" fill="white"/>
</g>
<defs>
<filter id="filter0_d_324:899" x="0" y="0" width="88" height="88" filterUnits="userSpaceOnUse" color-interpolation-filters="sRGB">
<feFlood flood-opacity="0" result="BackgroundImageFix"/>
<feColorMatrix in="SourceAlpha" type="matrix" values="0 0 0 0 0 0 0 0 0 0 0 0 0 0 0 0 0 0 127 0" result="hardAlpha"/>
<feOffset dy="1"/>
<feGaussianBlur stdDeviation="12"/>
<feComposite in2="hardAlpha" operator="out"/>
<feColorMatrix type="matrix" values="0 0 0 0 0 0 0 0 0 0 0 0 0 0 0 0 0 0 0.08 0"/>
<feBlend mode="normal" in2="BackgroundImageFix" result="effect1_dropShadow_324:899"/>
<feBlend mode="normal" in="SourceGraphic" in2="effect1_dropShadow_324:899" result="shape"/>
</filter>
<filter id="filter1_bd_324:899" x="0" y="0" width="88" height="88" filterUnits="userSpaceOnUse" color-interpolation-filters="sRGB">
<feFlood flood-opacity="0" result="BackgroundImageFix"/>
<feGaussianBlur in="BackgroundImage" stdDeviation="10"/>
<feComposite in2="SourceAlpha" operator="in" result="effect1_backgroundBlur_324:899"/>
<feColorMatrix in="SourceAlpha" type="matrix" values="0 0 0 0 0 0 0 0 0 0 0 0 0 0 0 0 0 0 127 0" result="hardAlpha"/>
<feOffset dy="1"/>
<feGaussianBlur stdDeviation="12"/>
<feComposite in2="hardAlpha" operator="out"/>
<feColorMatrix type="matrix" values="0 0 0 0 0 0 0 0 0 0 0 0 0 0 0 0 0 0 0.1 0"/>
<feBlend mode="normal" in2="effect1_backgroundBlur_324:899" result="effect2_dropShadow_324:899"/>
<feBlend mode="normal" in="SourceGraphic" in2="effect2_dropShadow_324:899" result="shape"/>
</filter>
<linearGradient id="paint0_linear_324:899" x1="33" y1="30" x2="51.5" y2="71.5" gradientUnits="userSpaceOnUse">
<stop stop-color="#34018E"/>
<stop offset="1" stop-color="#6CE5E7"/>
</linearGradient>
</defs>
</svg>
